<?xml version="1.0" encoding="utf-8"?>
<!-- Generator: Adobe Illustrator 26.2.1, SVG Export Plug-In . SVG Version: 6.00 Build 0)  -->
<svg version="1.1" id="Layer_1" xmlns="http://www.w3.org/2000/svg" xmlns:xlink="http://www.w3.org/1999/xlink" x="0px" y="0px"
	 viewBox="0 0 3840 2160" style="enable-background:new 0 0 3840 2160;" xml:space="preserve">
<style type="text/css">
	.st0{fill:url(#SVGID_1_);}
	.st1{fill:#FFFFFF;}
	.st2{fill:url(#SVGID_00000060011298769129013600000017758374381886453121_);}
	.st3{fill:url(#SVGID_00000029026661414303033960000007001519939321104529_);}
	.st4{fill:url(#SVGID_00000150069057784006079720000007319701805616129947_);}
	.st5{fill:#312D2D;}
	.st6{fill:url(#SVGID_00000107570386221371169810000013815197563396366752_);}
	.st7{fill:#FF0054;}
	.st8{fill:url(#SVGID_00000111191072478442149080000004447192861243635884_);}
	.st9{fill:url(#SVGID_00000078009040027681032510000014332056978243261065_);}
	.st10{fill:url(#SVGID_00000009584719301735775190000000108195680824420493_);}
	.st11{fill:url(#SVGID_00000029764542976844406350000013749496691531454376_);}
	.st12{fill:url(#SVGID_00000166638612636048599220000001346838104283457447_);}
	.st13{fill:url(#SVGID_00000057840964249865783650000005241683458339995277_);}
	.st14{fill:#FF3300;}
	.st15{fill:url(#SVGID_00000149373047748754998240000012143669070482902680_);}
	.st16{fill:#3498DB;}
	.st17{fill:url(#SVGID_00000018207327869408365210000002761458177570297485_);}
	.st18{fill:url(#SVGID_00000166651239297183965270000017222251752724651673_);}
	.st19{fill:url(#SVGID_00000103976918006696573670000015206055708795191474_);}
	.st20{fill:url(#SVGID_00000018230140222325472220000004871373036626264462_);}
	.st21{fill:url(#SVGID_00000075153533161657790220000016424559183115115953_);}
	.st22{fill:url(#SVGID_00000145760151741193921020000003427548606756362644_);}
	.st23{fill:url(#SVGID_00000029741456105728122930000011082564296828871614_);}
	.st24{fill:#FF9900;}
	.st25{fill:url(#SVGID_00000024694192631840721980000006278435049222907569_);}
	.st26{fill:url(#SVGID_00000008830414100451691560000018355215984110909063_);}
	.st27{fill:url(#SVGID_00000088846230850175628750000017238613808614152071_);}
	.st28{fill:url(#SVGID_00000050642547449736840640000003822380499108460161_);}
	.st29{fill:url(#SVGID_00000134220176394573108730000005555923206196702851_);}
	.st30{fill:url(#SVGID_00000077313470740168030520000015035029988095087526_);}
	.st31{fill:url(#SVGID_00000026853584426757632410000004876146494699393466_);}
	.st32{fill:url(#SVGID_00000110450644427780771720000007024252376854307722_);}
	.st33{fill:url(#SVGID_00000051360924846720942150000002506934796754537889_);}
	.st34{fill:url(#SVGID_00000076571298616825612780000004835741022886457521_);}
	.st35{fill:url(#SVGID_00000013883577806703945280000003014858215466701704_);}
	.st36{fill:url(#SVGID_00000100349946121864221070000008288679756716209045_);}
	.st37{fill:url(#SVGID_00000139292552398085507590000006360379565392607390_);}
	.st38{fill:url(#SVGID_00000051354337707063982350000008383218281586203563_);}
	.st39{fill:url(#SVGID_00000022561833107364753780000013100402632228887176_);}
	.st40{fill:url(#SVGID_00000153683533744830304680000012539394014151544242_);}
	.st41{fill:url(#SVGID_00000147203296603522689040000014956322458002571662_);}
	.st42{fill:#F7BD66;}
	.st43{fill:#CCCCCC;}
	.st44{fill:#666666;}
	.st45{fill:#9EC2E9;}
	.st46{fill:url(#SVGID_00000155837975038092332510000002065962156202037922_);}
	.st47{fill:url(#SVGID_00000155857835946292525240000008187351252394861450_);}
	.st48{fill:url(#SVGID_00000131340369985260295890000000761057830251202694_);}
	.st49{fill:#E6E6E6;}
	.st50{fill:#CBCACA;}
	.st51{fill:#FFCCBF;}
	.st52{fill:#E5F2FA;}
	.st53{fill:#99CBED;}
	.st54{fill:#989696;}
	.st55{fill:#8C8C8C;}
	.st56{fill:#FFEBCF;}
	.st57{fill:#D8D7D7;}
	.st58{fill:#FFCC7F;}
	.st59{fill:#FFE5BF;}
	.st60{fill:#FFBFD4;}
	.st61{fill:#3D3939;}
	.st62{fill:#979595;}
	.st63{fill:#CCE5F6;}
	.st64{fill:#FFD8CF;}
	.st65{fill:#E6EFF9;}
</style>
<linearGradient id="SVGID_1_" gradientUnits="userSpaceOnUse" x1="-1330.5208" y1="372" x2="307.8793" y2="372" gradientTransform="matrix(0 -4.882812e-03 -3.662109e-03 0 123.9102 324)">
	<stop  offset="0" style="stop-color:#FFFFFF"/>
	<stop  offset="1" style="stop-color:#E2E2E2"/>
</linearGradient>
<path class="st0" d="M-389.3,368l-6,8l-6-8H-389.3"/>
<path class="st1" d="M-407.3,148h24c2.7,0,4,1.3,4,4v24c0,2.7-1.3,4-4,4h-24c-2.7,0-4-1.3-4-4v-24C-411.3,149.3-410,148-407.3,148"
	/>
<linearGradient id="SVGID_00000155864156816295685000000001097935990793867658_" gradientUnits="userSpaceOnUse" x1="-1330.5208" y1="183" x2="307.8793" y2="183" gradientTransform="matrix(0 -3.662109e-03 -3.662109e-03 0 123.9102 135)">
	<stop  offset="0" style="stop-color:#FFFFFF"/>
	<stop  offset="1" style="stop-color:#E2E2E2"/>
</linearGradient>
<path style="fill:url(#SVGID_00000155864156816295685000000001097935990793867658_);" d="M-389.3,180l-6,6l-6-6H-389.3"/>
<path class="st1" d="M-367.3,108h24c2.7,0,4,1.3,4,4v24c0,2.7-1.3,4-4,4h-24c-2.7,0-4-1.3-4-4v-24C-371.3,109.3-370,108-367.3,108"
	/>
<linearGradient id="SVGID_00000078003877667108389310000013555226517502600109_" gradientUnits="userSpaceOnUse" x1="-1330.5208" y1="143" x2="307.8793" y2="143" gradientTransform="matrix(0 -3.662109e-03 -3.662109e-03 0 163.9102 95)">
	<stop  offset="0" style="stop-color:#FFFFFF"/>
	<stop  offset="1" style="stop-color:#E2E2E2"/>
</linearGradient>
<path style="fill:url(#SVGID_00000078003877667108389310000013555226517502600109_);" d="M-349.3,140l-6,6l-6-6H-349.3"/>
<path class="st1" d="M-287.3,148h24c2.7,0,4,1.3,4,4v24c0,2.7-1.3,4-4,4h-24c-2.7,0-4-1.3-4-4v-24C-291.3,149.3-290,148-287.3,148"
	/>
<linearGradient id="SVGID_00000005262963772531811180000017998267181587031961_" gradientUnits="userSpaceOnUse" x1="-1330.5208" y1="183" x2="307.8793" y2="183" gradientTransform="matrix(0 -3.662109e-03 -3.662109e-03 0 243.9102 135)">
	<stop  offset="0" style="stop-color:#FFFFFF"/>
	<stop  offset="1" style="stop-color:#E2E2E2"/>
</linearGradient>
<path style="fill:url(#SVGID_00000005262963772531811180000017998267181587031961_);" d="M-269.3,180l-6,6l-6-6H-269.3"/>
<path class="st1" d="M-487.3,68h24c2.7,0,4,1.3,4,4v24c0,2.7-1.3,4-4,4h-24c-2.7,0-4-1.3-4-4V72C-491.3,69.3-490,68-487.3,68"/>
<path class="st1" d="M-447.3,68h24c2.7,0,4,1.3,4,4v24c0,2.7-1.3,4-4,4h-24c-2.7,0-4-1.3-4-4V72C-451.3,69.3-450,68-447.3,68"/>
<path class="st5" d="M-440.3,85c0,0.8-0.3,1.5-0.9,2.1c-0.6,0.6-1.3,0.9-2.1,0.9c-0.8,0-1.6-0.3-2.2-0.9c-0.6-0.6-0.8-1.3-0.8-2.1
	c0-0.8,0.3-1.5,0.8-2.1c0.6-0.6,1.3-0.9,2.2-0.9c0.8,0,1.5,0.3,2.1,0.9C-440.6,83.5-440.3,84.2-440.3,85"/>
<path class="st1" d="M-407.3,68h24c2.7,0,4,1.3,4,4v24c0,2.7-1.3,4-4,4h-24c-2.7,0-4-1.3-4-4V72C-411.3,69.3-410,68-407.3,68"/>
<path class="st5" d="M-392.3,85c0,0.8-0.3,1.5-0.9,2.1c-0.6,0.6-1.3,0.9-2.1,0.9c-0.8,0-1.6-0.3-2.2-0.9c-0.6-0.6-0.8-1.3-0.8-2.1
	c0-0.8,0.3-1.5,0.8-2.1c0.6-0.6,1.3-0.9,2.2-0.9c0.8,0,1.5,0.3,2.1,0.9C-392.6,83.5-392.3,84.2-392.3,85 M-400.3,85
	c0,0.8-0.3,1.5-0.9,2.1c-0.6,0.6-1.3,0.9-2.1,0.9c-0.8,0-1.6-0.3-2.2-0.9c-0.6-0.6-0.8-1.3-0.8-2.1c0-0.8,0.3-1.5,0.8-2.1
	c0.6-0.6,1.3-0.9,2.2-0.9c0.8,0,1.5,0.3,2.1,0.9C-400.6,83.5-400.3,84.2-400.3,85"/>
<path class="st1" d="M-367.3,68h24c2.7,0,4,1.3,4,4v24c0,2.7-1.3,4-4,4h-24c-2.7,0-4-1.3-4-4V72C-371.3,69.3-370,68-367.3,68"/>
<linearGradient id="SVGID_00000042722561510688456270000011678700207485634432_" gradientUnits="userSpaceOnUse" x1="-1330.5208" y1="103" x2="307.8793" y2="103" gradientTransform="matrix(0 -3.662109e-03 -3.662109e-03 0 163.9102 55)">
	<stop  offset="0" style="stop-color:#FFFFFF"/>
	<stop  offset="1" style="stop-color:#E2E2E2"/>
</linearGradient>
<path style="fill:url(#SVGID_00000042722561510688456270000011678700207485634432_);" d="M-349.3,100l-6,6l-6-6H-349.3"/>
<path class="st5" d="M-352.3,85c0,0.8-0.3,1.5-0.9,2.1c-0.6,0.6-1.3,0.9-2.1,0.9c-0.8,0-1.6-0.3-2.1-0.9c-0.6-0.6-0.9-1.3-0.9-2.1
	c0-0.8,0.3-1.5,0.9-2.1c0.6-0.6,1.3-0.9,2.1-0.9c0.8,0,1.5,0.3,2.1,0.9C-352.6,83.5-352.3,84.2-352.3,85 M-344.3,85
	c0,0.8-0.3,1.5-0.9,2.1c-0.6,0.6-1.3,0.9-2.1,0.9c-0.8,0-1.6-0.3-2.1-0.9c-0.6-0.6-0.9-1.3-0.9-2.1c0-0.8,0.3-1.5,0.9-2.1
	c0.6-0.6,1.3-0.9,2.1-0.9c0.8,0,1.5,0.3,2.1,0.9C-344.6,83.5-344.3,84.2-344.3,85 M-360.3,85c0,0.8-0.3,1.5-0.9,2.1
	c-0.6,0.6-1.3,0.9-2.1,0.9c-0.8,0-1.6-0.3-2.1-0.9c-0.6-0.6-0.9-1.3-0.9-2.1c0-0.8,0.3-1.5,0.9-2.1c0.6-0.6,1.3-0.9,2.1-0.9
	c0.8,0,1.5,0.3,2.1,0.9C-360.6,83.5-360.3,84.2-360.3,85"/>
<path class="st1" d="M-327.3,68h24c2.7,0,4,1.3,4,4v24c0,2.7-1.3,4-4,4h-24c-2.7,0-4-1.3-4-4V72C-331.3,69.3-330,68-327.3,68"/>
<path class="st1" d="M-287.3,68h24c2.7,0,4,1.3,4,4v24c0,2.7-1.3,4-4,4h-24c-2.7,0-4-1.3-4-4V72C-291.3,69.3-290,68-287.3,68"/>
<path class="st7" d="M-274.8,78.6c0.9-1,2.1-1.6,3.5-1.6c1.4,0,2.5,0.5,3.5,1.6h0.1c0.9,1,1.4,2.2,1.4,3.6c0,1.2-0.3,2.2-1,3
	l-0.5,0.6l-6.9,6.9l-0.7,0.3c-0.3,0-0.5-0.1-0.7-0.3l-6.9-6.9l-0.4-0.6c-0.7-0.9-1-1.9-1-3c0-1.4,0.5-2.6,1.4-3.6
	c1-1,2.2-1.6,3.6-1.6c1.4,0,2.6,0.5,3.5,1.6l0.5,0.6L-274.8,78.6"/>
<linearGradient id="SVGID_00000183948773363342486450000012491451881893212601_" gradientUnits="userSpaceOnUse" x1="-1330.5208" y1="103" x2="307.8793" y2="103" gradientTransform="matrix(0 -3.662109e-03 -3.662109e-03 0 123.9102 55)">
	<stop  offset="0" style="stop-color:#FFFFFF"/>
	<stop  offset="1" style="stop-color:#E2E2E2"/>
</linearGradient>
<path style="fill:url(#SVGID_00000183948773363342486450000012491451881893212601_);" d="M-389.3,100l-6,6l-6-6H-389.3"/>
<linearGradient id="SVGID_00000179646395786311319670000002160884798193580196_" gradientUnits="userSpaceOnUse" x1="-1330.5208" y1="103" x2="307.8793" y2="103" gradientTransform="matrix(0 -3.662109e-03 -3.662109e-03 0 83.9102 55)">
	<stop  offset="0" style="stop-color:#FFFFFF"/>
	<stop  offset="1" style="stop-color:#E2E2E2"/>
</linearGradient>
<path style="fill:url(#SVGID_00000179646395786311319670000002160884798193580196_);" d="M-429.3,100l-6,6l-6-6H-429.3"/>
<linearGradient id="SVGID_00000080179135354202353810000014083600926482313626_" gradientUnits="userSpaceOnUse" x1="-1330.5208" y1="103" x2="307.8793" y2="103" gradientTransform="matrix(0 -3.662109e-03 -3.662109e-03 0 43.9102 55)">
	<stop  offset="0" style="stop-color:#FFFFFF"/>
	<stop  offset="1" style="stop-color:#E2E2E2"/>
</linearGradient>
<path style="fill:url(#SVGID_00000080179135354202353810000014083600926482313626_);" d="M-469.3,100l-6,6l-6-6H-469.3"/>
<linearGradient id="SVGID_00000067236206045184813650000001311805235957911439_" gradientUnits="userSpaceOnUse" x1="-1330.5208" y1="103" x2="307.8793" y2="103" gradientTransform="matrix(0 -3.662109e-03 -3.662109e-03 0 203.9102 55)">
	<stop  offset="0" style="stop-color:#FFFFFF"/>
	<stop  offset="1" style="stop-color:#E2E2E2"/>
</linearGradient>
<path style="fill:url(#SVGID_00000067236206045184813650000001311805235957911439_);" d="M-309.3,100l-6,6l-6-6H-309.3"/>
<linearGradient id="SVGID_00000121260093099297831720000016218888023047016119_" gradientUnits="userSpaceOnUse" x1="-1330.5208" y1="103" x2="307.8793" y2="103" gradientTransform="matrix(0 -3.662109e-03 -3.662109e-03 0 243.9102 55)">
	<stop  offset="0" style="stop-color:#FFFFFF"/>
	<stop  offset="1" style="stop-color:#E2E2E2"/>
</linearGradient>
<path style="fill:url(#SVGID_00000121260093099297831720000016218888023047016119_);" d="M-269.3,100l-6,6l-6-6H-269.3"/>
<path class="st7" d="M-310,77.8c1.2-0.8,2.4-1,3.8-0.6c1.3,0.4,2.3,1.2,3,2.4h0c0.6,1.2,0.8,2.5,0.4,3.8c-0.3,1.1-0.9,2-1.8,2.7
	l-0.5,0.5l-8.5,4.9l-0.7,0.2l3.7-6.2l-2.5-4.2L-310,77.8 M-316.4,91.6l-0.8-0.1l-8.4-4.9l-0.6-0.4c-0.9-0.7-1.5-1.6-1.8-2.7
	c-0.4-1.3-0.2-2.6,0.5-3.8c0.7-1.2,1.7-2,3-2.4c1.4-0.4,2.6-0.2,3.8,0.6l0.7,0.4l-1.2,4.9l4.8,2.5L-316.4,91.6"/>
<path class="st1" d="M-167.3,68h24c2.7,0,4,1.3,4,4v24c0,2.7-1.3,4-4,4h-24c-2.7,0-4-1.3-4-4V72C-171.3,69.3-170,68-167.3,68"/>
<linearGradient id="SVGID_00000116939290018024990760000003232869577513070481_" gradientUnits="userSpaceOnUse" x1="-1330.5208" y1="103" x2="307.8793" y2="103" gradientTransform="matrix(0 -3.662109e-03 -3.662109e-03 0 363.9102 55)">
	<stop  offset="0" style="stop-color:#FFFFFF"/>
	<stop  offset="1" style="stop-color:#E2E2E2"/>
</linearGradient>
<path style="fill:url(#SVGID_00000116939290018024990760000003232869577513070481_);" d="M-149.3,100l-6,6l-6-6H-149.3"/>
<path class="st14" d="M-158.4,85v-8c0-0.6,0.2-1,0.6-1.4c0.4-0.4,0.8-0.6,1.4-0.6h2c0.6,0,1.1,0.2,1.5,0.6c0.4,0.4,0.5,0.8,0.5,1.4
	v8c0,0.6-0.2,1.1-0.5,1.4c-0.4,0.4-0.9,0.6-1.5,0.6h-2c-0.6,0-1-0.2-1.4-0.6C-158.2,86.1-158.4,85.6-158.4,85 M-152.3,92
	c0,0.8-0.3,1.5-0.9,2.1c-0.6,0.6-1.3,0.9-2.1,0.9s-1.6-0.3-2.1-0.9c-0.6-0.6-0.9-1.3-0.9-2.1c0-0.8,0.3-1.5,0.9-2.1
	c0.6-0.6,1.3-0.9,2.1-0.9s1.5,0.3,2.1,0.9C-152.6,90.5-152.3,91.2-152.3,92"/>
<path class="st1" d="M-127.3,68h24c2.7,0,4,1.3,4,4v24c0,2.7-1.3,4-4,4h-24c-2.7,0-4-1.3-4-4V72C-131.3,69.3-130,68-127.3,68"/>
<linearGradient id="SVGID_00000155860287679653331370000006458305116258309508_" gradientUnits="userSpaceOnUse" x1="-1330.5208" y1="103" x2="307.8793" y2="103" gradientTransform="matrix(0 -3.662109e-03 -3.662109e-03 0 403.9102 55)">
	<stop  offset="0" style="stop-color:#FFFFFF"/>
	<stop  offset="1" style="stop-color:#E2E2E2"/>
</linearGradient>
<path style="fill:url(#SVGID_00000155860287679653331370000006458305116258309508_);" d="M-109.3,100l-6,6l-6-6H-109.3"/>
<path class="st16" d="M-115.2,74c1.8,0,3.1,0.4,4.1,1.2l0.1,0.1c1.1,0.9,1.6,2.1,1.6,3.8v0c0,1.1-0.2,2-0.6,2.7l-1.5,1.8l-1.2,1.3
	c-0.2,0.4-0.4,0.8-0.4,1.3l-0.3,0.7l-0.6,0.2h-2.7l-0.6-0.2c-0.2-0.2-0.3-0.4-0.3-0.6c0-1.1,0.2-2,0.6-2.7v-0.1l1.1-1.5v-0.1l1-1.2
	l0.3-1l-0.2-0.6l-0.9-0.2c-0.4,0-0.7,0.1-0.9,0.3c-0.2,0.3-0.3,0.6-0.4,1.2l-0.3,0.6l-0.6,0.2h-2.8l-0.6-0.2l-0.2-0.6
	c0-2,0.6-3.5,1.8-4.6C-118.5,74.6-117.1,74-115.2,74L-115.2,74 M-115.3,89c0.9,0,1.6,0.3,2.1,0.8c0.6,0.5,0.9,1.3,0.9,2.2
	s-0.3,1.6-0.9,2.2c-0.5,0.5-1.2,0.8-2.1,0.8c-0.9,0-1.6-0.3-2.1-0.8c-0.6-0.6-0.9-1.3-0.9-2.2s0.3-1.6,0.9-2.2
	C-117,89.3-116.3,89-115.3,89"/>
<path class="st1" d="M-207.3,68h24c2.7,0,4,1.3,4,4v24c0,2.7-1.3,4-4,4h-24c-2.7,0-4-1.3-4-4V72C-211.3,69.3-210,68-207.3,68"/>
<linearGradient id="SVGID_00000021813607508702833050000009509253303168300475_" gradientUnits="userSpaceOnUse" x1="-1330.5208" y1="103" x2="307.8793" y2="103" gradientTransform="matrix(0 -3.662109e-03 -3.662109e-03 0 323.9102 55)">
	<stop  offset="0" style="stop-color:#FFFFFF"/>
	<stop  offset="1" style="stop-color:#E2E2E2"/>
</linearGradient>
<path style="fill:url(#SVGID_00000021813607508702833050000009509253303168300475_);" d="M-189.3,100l-6,6l-6-6H-189.3"/>
<path class="st5" d="M-194.4,85v-9c0-0.6,0.2-1,0.6-1.4c0.4-0.4,0.8-0.6,1.4-0.6h2c0.6,0,1.1,0.2,1.5,0.6c0.4,0.4,0.5,0.8,0.5,1.4v9
	c0,0.6-0.2,1.1-0.5,1.4c-0.4,0.4-0.9,0.6-1.5,0.6h-2c-0.6,0-1-0.2-1.4-0.6C-194.2,86.1-194.4,85.6-194.4,85 M-202.4,85v-9
	c0-0.6,0.2-1,0.6-1.4c0.4-0.4,0.8-0.6,1.4-0.6h2c0.6,0,1.1,0.2,1.5,0.6c0.4,0.4,0.5,0.8,0.5,1.4v9c0,0.6-0.2,1.1-0.5,1.4
	c-0.4,0.4-0.9,0.6-1.5,0.6h-2c-0.6,0-1-0.2-1.4-0.6C-202.2,86.1-202.4,85.6-202.4,85 M-188.3,92c0,0.8-0.3,1.5-0.9,2.1
	c-0.6,0.6-1.3,0.9-2.1,0.9s-1.6-0.3-2.1-0.9c-0.6-0.6-0.9-1.3-0.9-2.1c0-0.8,0.3-1.5,0.9-2.1c0.6-0.6,1.3-0.9,2.1-0.9
	s1.5,0.3,2.1,0.9C-188.6,90.5-188.3,91.2-188.3,92 M-196.3,92c0,0.8-0.3,1.5-0.9,2.1c-0.6,0.6-1.3,0.9-2.1,0.9s-1.6-0.3-2.1-0.9
	c-0.6-0.6-0.9-1.3-0.9-2.1c0-0.8,0.3-1.5,0.9-2.1c0.6-0.6,1.3-0.9,2.1-0.9s1.5,0.3,2.1,0.9C-196.6,90.5-196.3,91.2-196.3,92"/>
<path class="st14" d="M-284,159.3l4-4c0.2-0.2,0.4-0.3,0.7-0.3s0.5,0.1,0.7,0.3l3.3,3.3l3.3-3.3c0.2-0.2,0.4-0.3,0.7-0.3
	s0.5,0.1,0.7,0.3l4,4l0.3,0.7l-0.3,0.7l-3.3,3.3l3.3,3.3l0.3,0.7l-0.3,0.7l-4,4c-0.2,0.2-0.4,0.3-0.7,0.3l-0.7-0.3l-3.3-3.3
	l-3.3,3.3l-0.7,0.3c-0.3,0-0.5-0.1-0.7-0.3l-4-4c-0.2-0.2-0.3-0.4-0.3-0.7s0.1-0.5,0.3-0.7l3.3-3.3l-3.3-3.3
	c-0.2-0.2-0.3-0.4-0.3-0.7S-284.2,159.5-284,159.3"/>
<path class="st1" d="M-327.3,108h24c2.7,0,4,1.3,4,4v24c0,2.7-1.3,4-4,4h-24c-2.7,0-4-1.3-4-4v-24C-331.3,109.3-330,108-327.3,108"
	/>
<linearGradient id="SVGID_00000060740704456799956650000011681828603839986089_" gradientUnits="userSpaceOnUse" x1="-1330.5208" y1="143" x2="307.8793" y2="143" gradientTransform="matrix(0 -3.662109e-03 -3.662109e-03 0 203.9102 95)">
	<stop  offset="0" style="stop-color:#FFFFFF"/>
	<stop  offset="1" style="stop-color:#E2E2E2"/>
</linearGradient>
<path style="fill:url(#SVGID_00000060740704456799956650000011681828603839986089_);" d="M-309.3,140l-6,6l-6-6H-309.3"/>
<path class="st1" d="M-287.3,108h24c2.7,0,4,1.3,4,4v24c0,2.7-1.3,4-4,4h-24c-2.7,0-4-1.3-4-4v-24C-291.3,109.3-290,108-287.3,108"
	/>
<linearGradient id="SVGID_00000049198062672646076120000017509016243022256308_" gradientUnits="userSpaceOnUse" x1="-1330.5208" y1="143" x2="307.8793" y2="143" gradientTransform="matrix(0 -3.662109e-03 -3.662109e-03 0 243.9102 95)">
	<stop  offset="0" style="stop-color:#FFFFFF"/>
	<stop  offset="1" style="stop-color:#E2E2E2"/>
</linearGradient>
<path style="fill:url(#SVGID_00000049198062672646076120000017509016243022256308_);" d="M-269.3,140l-6,6l-6-6H-269.3"/>
<path class="st5" d="M-281.8,120.6L-281.8,120.6l-2.5-0.9l0.7-1.7l7.3,2.2l-0.8,1.8l-1.2-0.4v0.4c0,0.6-0.2,1.1-0.6,1.5
	c-0.4,0.3-0.8,0.5-1.4,0.5c-0.6,0-1.1-0.2-1.5-0.5c-0.4-0.4-0.5-0.9-0.5-1.5S-282.1,120.9-281.8,120.6 M-272.3,122l0-0.4l-1.3,0.4
	l-0.8-1.8l7.3-2.2l0.7,1.7l-2.6,0.9l0,0c0.4,0.3,0.6,0.8,0.6,1.4s-0.2,1.1-0.6,1.5c-0.4,0.3-0.8,0.5-1.4,0.5c-0.6,0-1.1-0.2-1.5-0.5
	C-272.1,123.1-272.3,122.6-272.3,122 M-271,126.8c0.7,0.7,1.2,1.4,1.5,2.2c0.1,0.4,0.1,0.8-0.1,1.1l-0.9,0.8l-1.2,0
	c-0.4-0.2-0.7-0.5-0.8-0.9l-0.8-1.1l-0.1,0c-0.5-0.6-1.2-0.9-2-0.9c-0.8,0-1.5,0.3-2.1,0.9v0l-0.7,1.2l-0.9,0.8l-1.2,0l-0.9-0.8
	c-0.2-0.4-0.2-0.8,0-1.2c0.3-0.7,0.8-1.4,1.3-2l0.1-0.1c1.3-1.2,2.8-1.8,4.4-1.8C-273.6,125-272.1,125.6-271,126.8L-271,126.8"/>
<path class="st5" d="M-320.3,120c0.6,0,1,0.2,1.4,0.6c0.4,0.3,0.6,0.8,0.6,1.4s-0.2,1.1-0.6,1.5c-0.4,0.3-0.8,0.5-1.4,0.5
	c-0.6,0-1.1-0.2-1.5-0.5c-0.4-0.4-0.5-0.9-0.5-1.5s0.2-1.1,0.5-1.4C-321.4,120.2-321,120-320.3,120 M-311,126.8
	c0.7,0.7,1.2,1.4,1.5,2.2c0.1,0.4,0.1,0.8-0.1,1.1l-0.9,0.8l-1.2,0c-0.4-0.2-0.7-0.5-0.8-0.9l-0.8-1.1l-0.1,0
	c-0.5-0.6-1.2-0.9-2-0.9c-0.8,0-1.5,0.3-2.1,0.9v0l-0.7,1.2l-0.9,0.8l-1.2,0l-0.9-0.8c-0.2-0.4-0.2-0.8,0-1.2c0.3-0.7,0.8-1.4,1.3-2
	l0.1-0.1c1.3-1.2,2.8-1.8,4.4-1.8C-313.6,125-312.1,125.6-311,126.8L-311,126.8 M-310.3,120c0.6,0,1,0.2,1.4,0.6
	c0.4,0.3,0.6,0.8,0.6,1.4s-0.2,1.1-0.6,1.5c-0.4,0.3-0.8,0.5-1.4,0.5c-0.6,0-1.1-0.2-1.5-0.5c-0.4-0.4-0.5-0.9-0.5-1.5
	s0.2-1.1,0.5-1.4C-311.4,120.2-311,120-310.3,120"/>
<path class="st5" d="M-351,129.2L-351,129.2c-1.2,1.2-2.7,1.8-4.4,1.8c-1.7,0-3.2-0.6-4.4-1.8l-0.1-0.1c-0.5-0.6-1-1.3-1.3-2.1
	c-0.2-0.4-0.2-0.8,0-1.2c0.2-0.4,0.5-0.6,0.9-0.8l1.2,0.1l0.9,0.8l0.7,1.2v0.1c0.6,0.6,1.3,0.8,2.1,0.8c0.8,0,1.5-0.3,2-0.8l0.1-0.1
	l0.8-1c0.1-0.4,0.4-0.7,0.8-0.9l1.2-0.1c0.4,0.1,0.7,0.4,0.9,0.8c0.2,0.4,0.2,0.8,0.1,1.2C-349.8,127.8-350.3,128.5-351,129.2
	 M-360.3,120c0.6,0,1,0.2,1.4,0.6c0.4,0.3,0.6,0.8,0.6,1.4s-0.2,1.1-0.6,1.5c-0.4,0.3-0.8,0.5-1.4,0.5c-0.6,0-1.1-0.2-1.5-0.5
	c-0.4-0.4-0.5-0.9-0.5-1.5s0.2-1.1,0.5-1.4C-361.4,120.2-361,120-360.3,120 M-350.3,120c0.6,0,1,0.2,1.4,0.6
	c0.4,0.3,0.6,0.8,0.6,1.4s-0.2,1.1-0.6,1.5c-0.4,0.3-0.8,0.5-1.4,0.5c-0.6,0-1.1-0.2-1.5-0.5c-0.4-0.4-0.5-0.9-0.5-1.5
	s0.2-1.1,0.5-1.4C-351.4,120.2-351,120-350.3,120"/>
<path class="st1" d="M-247.3,68h24c2.7,0,4,1.3,4,4v24c0,2.7-1.3,4-4,4h-24c-2.7,0-4-1.3-4-4V72C-251.3,69.3-250,68-247.3,68"/>
<path class="st7" d="M-240.6,78.8c0.5-0.5,1.1-0.8,1.8-0.8s1.3,0.3,1.8,0.8c0.5,0.5,0.7,1.1,0.7,1.8c0,0.6-0.2,1.1-0.5,1.5l-0.2,0.3
	l-3.4,3.4l-0.4,0.2l-0.4-0.2l-3.4-3.4l-0.2-0.3c-0.3-0.4-0.5-0.9-0.5-1.5c0-0.7,0.2-1.3,0.8-1.8c0.5-0.5,1.1-0.8,1.8-0.8
	c0.7,0,1.3,0.3,1.8,0.8l0.2,0.3L-240.6,78.8 M-229.6,84.8c0.5-0.5,1.1-0.8,1.8-0.8s1.3,0.3,1.8,0.8c0.5,0.5,0.7,1.1,0.7,1.8
	c0,0.6-0.2,1.1-0.5,1.5l-0.2,0.3l-3.4,3.4l-0.4,0.2l-0.4-0.2l-3.4-3.4l-0.2-0.3c-0.3-0.4-0.5-0.9-0.5-1.5c0-0.7,0.2-1.3,0.8-1.8
	c0.5-0.5,1.1-0.8,1.8-0.8c0.7,0,1.3,0.3,1.8,0.8l0.2,0.3L-229.6,84.8"/>
<linearGradient id="SVGID_00000039855573346429400610000005788252318643866261_" gradientUnits="userSpaceOnUse" x1="-1330.5208" y1="103" x2="307.8793" y2="103" gradientTransform="matrix(0 -3.662109e-03 -3.662109e-03 0 283.9102 55)">
	<stop  offset="0" style="stop-color:#FFFFFF"/>
	<stop  offset="1" style="stop-color:#E2E2E2"/>
</linearGradient>
<path style="fill:url(#SVGID_00000039855573346429400610000005788252318643866261_);" d="M-229.3,100l-6,6l-6-6H-229.3"/>
<path class="st1" d="M-487.3,108h24c2.7,0,4,1.3,4,4v24c0,2.7-1.3,4-4,4h-24c-2.7,0-4-1.3-4-4v-24C-491.3,109.3-490,108-487.3,108"
	/>
<linearGradient id="SVGID_00000091009013813950468070000009015944445608881540_" gradientUnits="userSpaceOnUse" x1="-1330.5208" y1="143" x2="307.8793" y2="143" gradientTransform="matrix(0 -3.662109e-03 -3.662109e-03 0 43.9102 95)">
	<stop  offset="0" style="stop-color:#FFFFFF"/>
	<stop  offset="1" style="stop-color:#E2E2E2"/>
</linearGradient>
<path style="fill:url(#SVGID_00000091009013813950468070000009015944445608881540_);" d="M-469.3,140l-6,6l-6-6H-469.3"/>
<path class="st1" d="M-447.3,108h24c2.7,0,4,1.3,4,4v24c0,2.7-1.3,4-4,4h-24c-2.7,0-4-1.3-4-4v-24C-451.3,109.3-450,108-447.3,108"
	/>
<linearGradient id="SVGID_00000151532601760575040850000017596764957845590696_" gradientUnits="userSpaceOnUse" x1="-1330.5208" y1="143" x2="307.8793" y2="143" gradientTransform="matrix(0 -3.662109e-03 -3.662109e-03 0 83.9102 95)">
	<stop  offset="0" style="stop-color:#FFFFFF"/>
	<stop  offset="1" style="stop-color:#E2E2E2"/>
</linearGradient>
<path style="fill:url(#SVGID_00000151532601760575040850000017596764957845590696_);" d="M-429.3,140l-6,6l-6-6H-429.3"/>
<path class="st5" d="M-468.4,117v2.1l-0.2,0.7l-6.3,7.6h5.6c0.3,0,0.5,0.1,0.7,0.3l0.3,0.7v2.6l-0.3,0.7l-0.7,0.3h-12l-0.7-0.3
	c-0.2-0.2-0.3-0.4-0.3-0.7v-2.1l0.2-0.6l6.3-7.6h-5.3l-0.7-0.3c-0.2-0.2-0.3-0.4-0.3-0.7V117c0-0.3,0.1-0.5,0.3-0.7
	c0.2-0.2,0.4-0.3,0.7-0.3h11.6c0.3,0,0.5,0.1,0.7,0.3L-468.4,117"/>
<path class="st5" d="M-424.4,117v2.1l-0.2,0.7l-6.3,7.6h5.6c0.3,0,0.5,0.1,0.7,0.3l0.3,0.7v2.6l-0.3,0.7l-0.7,0.3h-12
	c-0.3,0-0.5-0.1-0.7-0.3s-0.3-0.4-0.3-0.7v-2.1l0.2-0.6l6.3-7.6h-5.3l-0.7-0.3l-0.3-0.7V117c0-0.3,0.1-0.5,0.3-0.7
	c0.2-0.2,0.4-0.3,0.7-0.3h11.6c0.3,0,0.5,0.1,0.7,0.3L-424.4,117 M-446.3,129v-2l2-4h-2v-2h6v2l-2,4h2v2H-446.3"/>
<path class="st1" d="M-247.3,108h24c2.7,0,4,1.3,4,4v24c0,2.7-1.3,4-4,4h-24c-2.7,0-4-1.3-4-4v-24C-251.3,109.3-250,108-247.3,108"
	/>
<linearGradient id="SVGID_00000079479281589908090160000009259839974494285500_" gradientUnits="userSpaceOnUse" x1="-1330.5208" y1="143" x2="307.8793" y2="143" gradientTransform="matrix(0 -3.662109e-03 -3.662109e-03 0 283.9102 95)">
	<stop  offset="0" style="stop-color:#FFFFFF"/>
	<stop  offset="1" style="stop-color:#E2E2E2"/>
</linearGradient>
<path style="fill:url(#SVGID_00000079479281589908090160000009259839974494285500_);" d="M-229.3,140l-6,6l-6-6H-229.3"/>
<path class="st24" d="M-246.5,127.2c-0.6-0.6-1-1.4-1-2.2c0-0.8,0.2-1.6,0.9-2.2c0.6-0.6,1.3-0.8,2.1-0.8c0.8,0,1.6,0.4,2.2,1
	l0.2,0.2c1.5,1.6,2.6,3.1,3.4,4.6c0.9,1.8,1.1,3,0.5,3.6c-0.6,0.6-1.8,0.4-3.5-0.6c-1.5-0.8-3.1-1.9-4.7-3.3L-246.5,127.2
	 M-238.3,119.2c0-0.9,0.3-1.7,0.9-2.2c0.6-0.6,1.3-0.9,2.1-0.9s1.6,0.3,2.1,0.9c0.6,0.6,0.9,1.3,0.9,2.2v0.2
	c-0.1,2.2-0.4,4.1-0.9,5.7c-0.6,1.9-1.3,2.8-2.1,2.8s-1.5-1-2.1-2.8c-0.5-1.6-0.8-3.5-0.9-5.7V119.2 M-229.5,123.1
	c0.5-0.8,1.1-1.3,2-1.5c0.8-0.3,1.6-0.2,2.2,0.2c0.7,0.4,1.2,1,1.5,1.8c0.2,0.8,0,1.6-0.5,2.4l-0.1,0.2c-1.2,1.8-2.3,3.3-3.5,4.4
	c-1.5,1.4-2.6,1.9-3.4,1.4c-0.7-0.4-0.8-1.6-0.4-3.6c0.3-1.7,1-3.4,2.1-5.3L-229.5,123.1"/>
<path class="st1" d="M-207.3,108h24c2.7,0,4,1.3,4,4v24c0,2.7-1.3,4-4,4h-24c-2.7,0-4-1.3-4-4v-24C-211.3,109.3-210,108-207.3,108"
	/>
<linearGradient id="SVGID_00000007410429674511452270000015797867768260734614_" gradientUnits="userSpaceOnUse" x1="-1330.5208" y1="143" x2="307.8793" y2="143" gradientTransform="matrix(0 -3.662109e-03 -3.662109e-03 0 323.9102 95)">
	<stop  offset="0" style="stop-color:#FFFFFF"/>
	<stop  offset="1" style="stop-color:#E2E2E2"/>
</linearGradient>
<path style="fill:url(#SVGID_00000007410429674511452270000015797867768260734614_);" d="M-189.3,140l-6,6l-6-6H-189.3"/>
<path class="st24" d="M-194.4,116.5l2.2,3.5l4.1,1c0.2,0,0.4,0.2,0.5,0.3l0.2,0.7l-0.2,0.6l-2.7,3.2l0.3,4.2l-0.1,0.7l-0.6,0.3h-0.6
	l-4-1.6l-4,1.6h-0.7l-0.5-0.4c-0.2-0.2-0.2-0.4-0.2-0.6l0.4-4.2l-2.8-3.2l-0.2-0.6l0.2-0.7c0.1-0.2,0.3-0.3,0.6-0.3l4.1-1l2.3-3.6
	c0.1-0.2,0.3-0.3,0.5-0.4h0.6L-194.4,116.5"/>
<path class="st1" d="M-167.3,108h24c2.7,0,4,1.3,4,4v24c0,2.7-1.3,4-4,4h-24c-2.7,0-4-1.3-4-4v-24C-171.3,109.3-170,108-167.3,108"
	/>
<linearGradient id="SVGID_00000075125435376545608910000013478593781066130095_" gradientUnits="userSpaceOnUse" x1="-1330.5208" y1="143" x2="307.8793" y2="143" gradientTransform="matrix(0 -3.662109e-03 -3.662109e-03 0 363.9102 95)">
	<stop  offset="0" style="stop-color:#FFFFFF"/>
	<stop  offset="1" style="stop-color:#E2E2E2"/>
</linearGradient>
<path style="fill:url(#SVGID_00000075125435376545608910000013478593781066130095_);" d="M-149.3,140l-6,6l-6-6H-149.3"/>
<path class="st24" d="M-162.6,124.7l-0.7,0.3l-0.7-0.3c-0.2-0.2-0.3-0.4-0.3-0.7s0.1-0.5,0.3-0.7l1.3-1.3l-1.3-1.3
	c-0.2-0.2-0.3-0.4-0.3-0.7s0.1-0.5,0.3-0.7c0.2-0.2,0.4-0.3,0.7-0.3s0.5,0.1,0.7,0.3l1.3,1.3l1.3-1.3c0.2-0.2,0.4-0.3,0.7-0.3
	s0.5,0.1,0.7,0.3l0.3,0.7l-0.3,0.7l-1.3,1.3l1.3,1.3l0.3,0.7l-0.3,0.7l-0.7,0.3l-0.7-0.3l-1.3-1.3L-162.6,124.7 M-158.3,130.5
	c0,0.4-0.1,0.8-0.5,1.1c-0.3,0.3-0.6,0.4-1,0.4c-0.4,0-0.8-0.1-1-0.4c-0.3-0.3-0.5-0.6-0.5-1.1c0-0.4,0.1-0.8,0.5-1.1
	c0.3-0.3,0.6-0.4,1-0.4c0.4,0,0.8,0.1,1,0.4C-158.5,129.8-158.3,130.1-158.3,130.5 M-148.3,117.5l-0.5,1.1l-1,0.4
	c-0.4,0-0.8-0.2-1-0.4c-0.3-0.3-0.5-0.6-0.5-1.1c0-0.4,0.1-0.8,0.5-1.1c0.3-0.3,0.6-0.4,1-0.4c0.4,0,0.8,0.2,1,0.4
	C-148.5,116.8-148.3,117.1-148.3,117.5 M-150.6,132.7l-0.7,0.3c-0.3,0-0.5-0.1-0.7-0.3c-0.2-0.2-0.3-0.4-0.3-0.7s0.1-0.5,0.3-0.7
	l1.3-1.3l-1.3-1.3c-0.2-0.2-0.3-0.4-0.3-0.7c0-0.3,0.1-0.5,0.3-0.7c0.2-0.2,0.4-0.3,0.7-0.3s0.5,0.1,0.7,0.3l1.3,1.3l1.3-1.3
	c0.2-0.2,0.4-0.3,0.7-0.3s0.5,0.1,0.7,0.3l0.3,0.7l-0.3,0.7l-1.3,1.3l1.3,1.3l0.3,0.7l-0.3,0.7l-0.7,0.3c-0.3,0-0.5-0.1-0.7-0.3
	l-1.3-1.3L-150.6,132.7"/>
<path class="st1" d="M-127.3,108h24c2.7,0,4,1.3,4,4v24c0,2.7-1.3,4-4,4h-24c-2.7,0-4-1.3-4-4v-24C-131.3,109.3-130,108-127.3,108"
	/>
<linearGradient id="SVGID_00000113331480340472183570000007459204683698977425_" gradientUnits="userSpaceOnUse" x1="-1330.5208" y1="143" x2="307.8793" y2="143" gradientTransform="matrix(0 -3.662109e-03 -3.662109e-03 0 403.9102 95)">
	<stop  offset="0" style="stop-color:#FFFFFF"/>
	<stop  offset="1" style="stop-color:#E2E2E2"/>
</linearGradient>
<path style="fill:url(#SVGID_00000113331480340472183570000007459204683698977425_);" d="M-109.3,140l-6,6l-6-6H-109.3"/>
<path class="st5" d="M-114.1,126c0.8-0.7,1.7-1,2.8-1v-4h-6v9v0.2v0.3c0,1-0.4,1.9-1.2,2.6V133c-0.7,0.7-1.6,1-2.8,1s-2-0.3-2.8-0.9
	h0c-0.8-0.7-1.2-1.6-1.2-2.6c0-1,0.4-1.8,1.2-2.5c0.8-0.7,1.7-1,2.8-1v-11c0-0.3,0.1-0.5,0.3-0.7c0.2-0.2,0.4-0.3,0.7-0.3h12
	c0.3,0,0.5,0.1,0.7,0.3l0.3,0.7v12v0.2v0.3c0,1-0.4,1.9-1.2,2.6V131c-0.7,0.7-1.6,1-2.8,1s-2-0.3-2.8-0.9h0
	c-0.8-0.7-1.2-1.6-1.2-2.6C-115.3,127.5-114.9,126.7-114.1,126"/>
<path class="st1" d="M-487.3,148h24c2.7,0,4,1.3,4,4v24c0,2.7-1.3,4-4,4h-24c-2.7,0-4-1.3-4-4v-24C-491.3,149.3-490,148-487.3,148"
	/>
<linearGradient id="SVGID_00000060020963440408283140000002917450622733486263_" gradientUnits="userSpaceOnUse" x1="-1330.5208" y1="183" x2="307.8793" y2="183" gradientTransform="matrix(0 -3.662109e-03 -3.662109e-03 0 43.9102 135)">
	<stop  offset="0" style="stop-color:#FFFFFF"/>
	<stop  offset="1" style="stop-color:#E2E2E2"/>
</linearGradient>
<path style="fill:url(#SVGID_00000060020963440408283140000002917450622733486263_);" d="M-469.3,180l-6,6l-6-6H-469.3"/>
<path class="st16" d="M-478.9,171.6c-1-1-1.4-2.1-1.4-3.3l0-0.2l4-10.4l0.4-0.4l0.6-0.2l0.6,0.2l0.4,0.4l4,10.4l0.1,0.2
	c0,1.2-0.5,2.3-1.4,3.3c-1,0.9-2.2,1.4-3.6,1.4C-476.7,173-477.9,172.6-478.9,171.6"/>
<path class="st1" d="M-447.3,148h24c2.7,0,4,1.3,4,4v24c0,2.7-1.3,4-4,4h-24c-2.7,0-4-1.3-4-4v-24C-451.3,149.3-450,148-447.3,148"
	/>
<linearGradient id="SVGID_00000132062175716351294060000001720864395347594683_" gradientUnits="userSpaceOnUse" x1="-1330.5208" y1="183" x2="307.8793" y2="183" gradientTransform="matrix(0 -3.662109e-03 -3.662109e-03 0 83.9102 135)">
	<stop  offset="0" style="stop-color:#FFFFFF"/>
	<stop  offset="1" style="stop-color:#E2E2E2"/>
</linearGradient>
<path style="fill:url(#SVGID_00000132062175716351294060000001720864395347594683_);" d="M-429.3,180l-6,6l-6-6H-429.3"/>
<path class="st16" d="M-442.9,169.6c-1-1-1.4-2.1-1.4-3.3l0-0.2l4-10.4l0.4-0.4l0.6-0.2l0.6,0.2l0.4,0.4l4,10.4l0.1,0.2
	c0,1.2-0.5,2.3-1.4,3.3c-1,0.9-2.2,1.4-3.6,1.4C-440.7,171-441.9,170.6-442.9,169.6 M-430.4,173.1c-0.6-0.6-0.9-1.3-0.9-2l0-0.2
	l2.4-6.6l0.2-0.2l0.4-0.1c0.1,0,0.2,0,0.3,0.1l0.2,0.2l2.4,6.6v0.2c0,0.8-0.3,1.4-0.9,2c-0.6,0.6-1.3,0.9-2.1,0.9
	C-429.1,174-429.8,173.8-430.4,173.1"/>
<path class="st1" d="M-407.3,108h24c2.7,0,4,1.3,4,4v24c0,2.7-1.3,4-4,4h-24c-2.7,0-4-1.3-4-4v-24C-411.3,109.3-410,108-407.3,108"
	/>
<linearGradient id="SVGID_00000090989861891773866140000003520086153427229614_" gradientUnits="userSpaceOnUse" x1="-1330.5208" y1="143" x2="307.8793" y2="143" gradientTransform="matrix(0 -3.662109e-03 -3.662109e-03 0 123.9102 95)">
	<stop  offset="0" style="stop-color:#FFFFFF"/>
	<stop  offset="1" style="stop-color:#E2E2E2"/>
</linearGradient>
<path style="fill:url(#SVGID_00000090989861891773866140000003520086153427229614_);" d="M-389.3,140l-6,6l-6-6H-389.3"/>
<linearGradient id="SVGID_00000018227824014973324070000002034321708922874261_" gradientUnits="userSpaceOnUse" x1="-1330.5208" y1="125" x2="307.8793" y2="125" gradientTransform="matrix(0 -9.765625e-03 -9.765625e-03 0 129.0938 77)">
	<stop  offset="0" style="stop-color:#312D2D;stop-opacity:0"/>
	<stop  offset="1" style="stop-color:#312D2D"/>
</linearGradient>
<path style="fill:url(#SVGID_00000018227824014973324070000002034321708922874261_);" d="M-404.3,117h2v16h-2V117"/>
<linearGradient id="SVGID_00000077292354260728362640000001964619148143567806_" gradientUnits="userSpaceOnUse" x1="-1330.5208" y1="123" x2="307.8793" y2="123" gradientTransform="matrix(0 -9.765625e-03 -9.765625e-03 0 133.0938 75)">
	<stop  offset="0" style="stop-color:#312D2D;stop-opacity:0"/>
	<stop  offset="1" style="stop-color:#312D2D"/>
</linearGradient>
<path style="fill:url(#SVGID_00000077292354260728362640000001964619148143567806_);" d="M-400.3,115h2v16h-2V115"/>
<linearGradient id="SVGID_00000084506668642484437300000005312524833813749949_" gradientUnits="userSpaceOnUse" x1="-1330.5208" y1="125" x2="307.8793" y2="125" gradientTransform="matrix(0 -9.765625e-03 -9.765625e-03 0 145.0938 77)">
	<stop  offset="0" style="stop-color:#312D2D;stop-opacity:0"/>
	<stop  offset="1" style="stop-color:#312D2D"/>
</linearGradient>
<path style="fill:url(#SVGID_00000084506668642484437300000005312524833813749949_);" d="M-388.3,117h2v16h-2V117"/>
<linearGradient id="SVGID_00000063610683773061187450000006721147468044951683_" gradientUnits="userSpaceOnUse" x1="-1330.5208" y1="125" x2="307.8793" y2="125" gradientTransform="matrix(0 -9.765625e-03 -9.765625e-03 0 137.0938 77)">
	<stop  offset="0" style="stop-color:#312D2D;stop-opacity:0"/>
	<stop  offset="1" style="stop-color:#312D2D"/>
</linearGradient>
<path style="fill:url(#SVGID_00000063610683773061187450000006721147468044951683_);" d="M-396.3,117h2v16h-2V117"/>
<linearGradient id="SVGID_00000040553604542364547470000007830053438095082391_" gradientUnits="userSpaceOnUse" x1="-1330.5208" y1="127" x2="307.8793" y2="127" gradientTransform="matrix(0 -9.765625e-03 -9.765625e-03 0 141.0938 79)">
	<stop  offset="0" style="stop-color:#312D2D;stop-opacity:0"/>
	<stop  offset="1" style="stop-color:#312D2D"/>
</linearGradient>
<path style="fill:url(#SVGID_00000040553604542364547470000007830053438095082391_);" d="M-392.3,119h2v16h-2V119"/>
<path class="st14" d="M-398.3,156h1.6l0.2,0.1l0.1,0.2v6.2l-0.1,0.3l-0.2,0.1h-6.2l-0.3-0.1l-0.1-0.3v-1.6l0.1-0.3l0.3-0.1h2.9
	l1.4-1.3v-3l0.1-0.2L-398.3,156 M-392.4,156l0.2,0.1l0.1,0.2v3l1.4,1.3h2.9l0.3,0.1l0.1,0.3v1.6l-0.1,0.3l-0.3,0.1h-6.2l-0.2-0.1
	l-0.1-0.3v-6.2l0.1-0.2l0.2-0.1H-392.4 M-392.4,172h-1.6l-0.2-0.1l-0.1-0.2v-6.2l0.1-0.3l0.2-0.1h6.2l0.3,0.1l0.1,0.3v1.6l-0.1,0.3
	l-0.3,0.1h-2.9l-1.4,1.3v3l-0.1,0.2L-392.4,172 M-398.3,172l-0.2-0.1l-0.1-0.2v-3l-1.4-1.3h-2.9l-0.3-0.1l-0.1-0.3v-1.6l0.1-0.3
	l0.3-0.1h6.2l0.2,0.1l0.1,0.3v6.2l-0.1,0.2l-0.2,0.1H-398.3"/>
<path class="st1" d="M-367.3,148h24c2.7,0,4,1.3,4,4v24c0,2.7-1.3,4-4,4h-24c-2.7,0-4-1.3-4-4v-24C-371.3,149.3-370,148-367.3,148"
	/>
<linearGradient id="SVGID_00000098927278507442614300000014221544597404700580_" gradientUnits="userSpaceOnUse" x1="-1330.5208" y1="183" x2="307.8793" y2="183" gradientTransform="matrix(0 -3.662109e-03 -3.662109e-03 0 163.9102 135)">
	<stop  offset="0" style="stop-color:#FFFFFF"/>
	<stop  offset="1" style="stop-color:#E2E2E2"/>
</linearGradient>
<path style="fill:url(#SVGID_00000098927278507442614300000014221544597404700580_);" d="M-349.3,180l-6,6l-6-6H-349.3"/>
<path class="st1" d="M-327.3,148h24c2.7,0,4,1.3,4,4v24c0,2.7-1.3,4-4,4h-24c-2.7,0-4-1.3-4-4v-24C-331.3,149.3-330,148-327.3,148"
	/>
<linearGradient id="SVGID_00000073698259422217634580000018388647358884270758_" gradientUnits="userSpaceOnUse" x1="-1330.5208" y1="183" x2="307.8793" y2="183" gradientTransform="matrix(0 -3.662109e-03 -3.662109e-03 0 203.9102 135)">
	<stop  offset="0" style="stop-color:#FFFFFF"/>
	<stop  offset="1" style="stop-color:#E2E2E2"/>
</linearGradient>
<path style="fill:url(#SVGID_00000073698259422217634580000018388647358884270758_);" d="M-309.3,180l-6,6l-6-6H-309.3"/>
<path class="st1" d="M-207.3,148h24c2.7,0,4,1.3,4,4v24c0,2.7-1.3,4-4,4h-24c-2.7,0-4-1.3-4-4v-24C-211.3,149.3-210,148-207.3,148"
	/>
<linearGradient id="SVGID_00000031181407286499676940000007978235791608535432_" gradientUnits="userSpaceOnUse" x1="-1330.5208" y1="183" x2="307.8793" y2="183" gradientTransform="matrix(0 -3.662109e-03 -3.662109e-03 0 323.9102 135)">
	<stop  offset="0" style="stop-color:#FFFFFF"/>
	<stop  offset="1" style="stop-color:#E2E2E2"/>
</linearGradient>
<path style="fill:url(#SVGID_00000031181407286499676940000007978235791608535432_);" d="M-189.3,180l-6,6l-6-6H-189.3"/>
<path class="st1" d="M-167.3,148h24c2.7,0,4,1.3,4,4v24c0,2.7-1.3,4-4,4h-24c-2.7,0-4-1.3-4-4v-24C-171.3,149.3-170,148-167.3,148"
	/>
<linearGradient id="SVGID_00000051381724341712754470000009065519063608995748_" gradientUnits="userSpaceOnUse" x1="-1330.5208" y1="183" x2="307.8793" y2="183" gradientTransform="matrix(0 -3.662109e-03 -3.662109e-03 0 363.9102 135)">
	<stop  offset="0" style="stop-color:#FFFFFF"/>
	<stop  offset="1" style="stop-color:#E2E2E2"/>
</linearGradient>
<path style="fill:url(#SVGID_00000051381724341712754470000009065519063608995748_);" d="M-149.3,180l-6,6l-6-6H-149.3"/>
<path class="st1" d="M-127.3,148h24c2.7,0,4,1.3,4,4v24c0,2.7-1.3,4-4,4h-24c-2.7,0-4-1.3-4-4v-24C-131.3,149.3-130,148-127.3,148"
	/>
<linearGradient id="SVGID_00000030452166718295864230000004066291026622095747_" gradientUnits="userSpaceOnUse" x1="-1330.5208" y1="183" x2="307.8793" y2="183" gradientTransform="matrix(0 -3.662109e-03 -3.662109e-03 0 403.9102 135)">
	<stop  offset="0" style="stop-color:#FFFFFF"/>
	<stop  offset="1" style="stop-color:#E2E2E2"/>
</linearGradient>
<path style="fill:url(#SVGID_00000030452166718295864230000004066291026622095747_);" d="M-109.3,180l-6,6l-6-6H-109.3"/>
<path class="st24" d="M-355.7,161.1l-0.7,0.1l0,0.1l0.1,0.2h0.1l1,0.4l1.7,0.5c0.7,0.2,1.3,0.5,1.9,0.9l-0.1-0.1
	c0.7,0.3,1.3,0.8,1.7,1.5c0.4,0.6,0.6,1.4,0.6,2.4c0,1-0.2,1.9-0.7,2.6c-0.5,0.7-1.1,1.3-1.9,1.7l-1.7,0.6v2.1l-0.3,0.6l-0.6,0.2
	h-2.3l-0.6-0.2l-0.3-0.6V172l-2-0.7v0.1l-2.4-1.5l-0.2-0.5c-0.1-0.2,0-0.4,0.1-0.6l1.2-2.5l0.5-0.4c0.1-0.1,0.3-0.2,0.5-0.1l0.5,0.3
	l1.3,0.9l1.5,0.6l1.3,0.1l1-0.1l0.1-0.2l-0.2-0.2c-0.3-0.2-0.6-0.3-1-0.4l-1.8-0.6l-1.9-0.7c-0.7-0.3-1.2-0.8-1.6-1.4
	c-0.5-0.6-0.8-1.4-0.8-2.4c0-1.3,0.5-2.4,1.4-3.2c0.6-0.7,1.5-1.1,2.5-1.4v-2.1c0-0.3,0.1-0.5,0.3-0.6c0.2-0.2,0.4-0.3,0.6-0.3h2.3
	c0.3,0,0.5,0.1,0.6,0.3l0.3,0.6v1.9l1.6,0.4c0.8,0.3,1.5,0.6,2.2,1.1l0.3,0.6l0,0.6l-1.2,2.5l-0.3,0.4l-0.5,0.1l-0.5-0.1l-1.4-0.7
	h0.1l-1.4-0.4L-355.7,161.1"/>
<path class="st1" d="M-247.3,148h24c2.7,0,4,1.3,4,4v24c0,2.7-1.3,4-4,4h-24c-2.7,0-4-1.3-4-4v-24C-251.3,149.3-250,148-247.3,148"
	/>
<linearGradient id="SVGID_00000008827746720355606880000010051689153359204502_" gradientUnits="userSpaceOnUse" x1="-1330.5208" y1="183" x2="307.8793" y2="183" gradientTransform="matrix(0 -3.662109e-03 -3.662109e-03 0 283.9102 135)">
	<stop  offset="0" style="stop-color:#FFFFFF"/>
	<stop  offset="1" style="stop-color:#E2E2E2"/>
</linearGradient>
<path style="fill:url(#SVGID_00000008827746720355606880000010051689153359204502_);" d="M-229.3,180l-6,6l-6-6H-229.3"/>
<path class="st16" d="M-226.3,164c0,2.5-0.9,4.6-2.6,6.4c-1.8,1.8-3.9,2.6-6.4,2.6c-2.5,0-4.6-0.9-6.4-2.6s-2.6-3.9-2.6-6.4
	c0-2.5,0.9-4.6,2.6-6.4c1.8-1.8,3.9-2.6,6.4-2.6c2.5,0,4.6,0.9,6.4,2.6C-227.2,159.4-226.3,161.5-226.3,164 M-235.3,159
	c-1.4,0-2.5,0.5-3.5,1.5h0c-1,1-1.5,2.1-1.5,3.5s0.5,2.6,1.5,3.6c1,1,2.1,1.4,3.5,1.4c1.4,0,2.6-0.5,3.5-1.4h0.1
	c0.9-1,1.4-2.2,1.4-3.6c0-1.4-0.5-2.6-1.4-3.5C-232.7,159.5-233.9,159-235.3,159"/>
<path class="st5" d="M-315,156.1l1.5,0.4h-0.1c0.5,0.1,1,0.4,1.5,0.6l0.2,0.1l0.1,0.1l1.4,1.1c0.7,0.7,1.3,1.5,1.8,2.4v-0.1
	c0.5,0.9,0.8,1.8,1,2.8c0.2,1,0.2,1.9,0.1,2.9v0.1c-0.2,1.2-0.5,2.3-1,3.4v0c-0.5,1.1-1.1,2-2,2.8l0,0.1l-0.8,0.4l-0.9-0.2l-0.6-0.4
	l0-0.1l-0.2-0.4l0-0.2v-0.4l0-0.2l0.2-0.3l0-0.1l0.2-0.4l0.2-0.2c0.7-0.7,1.2-1.6,1.5-2.7c0.3-1,0.4-2,0.3-3l-0.2-1.2v-0.1l-0.5-1.2
	l-1.1-1.4l-1.4-1.1h0l-1.6-0.5l-1.7-0.1c-0.7,0.1-1.3,0.3-1.9,0.6c-0.6,0.3-1.1,0.7-1.5,1.2v0.1c-0.3,0.3-0.5,0.7-0.6,1.1l0,0.1
	c-0.2,0.3-0.3,0.7-0.4,1.2l0,1.2c0.1,0.5,0.2,0.9,0.5,1.3v-0.1l0.9,1.1c0.3,0.3,0.7,0.5,1.1,0.7l0.9,0.2h0.1l0.9-0.1h0.1l0.9-0.4
	v-0.1l0.8-0.8l0.2-0.6v-0.1l0-0.5v-0.1l-0.1-0.8h-0.1l-0.3-0.5l-0.1-0.1l-0.1-0.1l0,0.1l0.1,0.1l0,0.6l0,0.7v0.1l-0.4,0.6l-0.1,0.1
	l-0.6,0.4l-0.8,0.1l-0.5-0.1h-0.1l-0.6-0.3l-0.5-0.4l-0.1-0.1l-0.4-0.6l-0.2-1.2l0.2-1.1v-0.1c0.2-0.4,0.4-0.7,0.7-0.9l0-0.1
	l0.9-0.8l0.1-0.1c0.4-0.2,0.8-0.3,1.2-0.4l1.2,0.1l1.2,0.4v0l1,0.7l0.9,1.2l0.5,1.3v0.1v1.6l-0.4,1.4h0.1l-1,1.4l-1.2,1.2h0.1
	l-1.3,0.6h0l-1.4,0.2l-1.7-0.1l-1.5-0.5h0l-0.4-0.2h0.1l-0.3-0.2v-0.1h0l-1.3-1.1l-1-1.4h-0.1l-0.5-1.4l-0.3-1.3v0
	c0-0.6,0-1.2,0-1.8v-0.1l0.5-1.6v-0.1c0.4-1,1-1.9,1.8-2.7c0.8-0.8,1.7-1.4,2.7-1.8h0l2.1-0.6L-315,156.1"/>
<path class="st24" d="M-198.3,167.2l-1.2-1c-1.2-1.2-1.8-2.6-1.8-4.2s0.6-3.1,1.8-4.2s2.6-1.8,4.2-1.8s3.1,0.6,4.2,1.8
	s1.8,2.6,1.8,4.2s-0.6,3.1-1.8,4.2l-1.2,1l-1,0.4V163h-4v4.7L-198.3,167.2 M-196.3,167.9V164h2v3.9l-1,0.1L-196.3,167.9"/>
<path class="st42" d="M-196.3,167.9l-1-0.2V163h4v4.7l-1,0.2V164h-2V167.9"/>
<path class="st43" d="M-196.3,167.9l1,0.1l1-0.1l1-0.2l1-0.4v2.8l-0.3,0.6l-0.7,0.3h-4l-0.7-0.3c-0.2-0.2-0.3-0.4-0.3-0.6v-2.8
	l1,0.4L-196.3,167.9"/>
<path class="st44" d="M-193.3,171v1.1l-0.3,0.6l-0.7,0.3h-2l-0.7-0.3c-0.2-0.2-0.3-0.4-0.3-0.6V171H-193.3"/>
<path class="st5" d="M-155.9,163h-2.3v-3h-2.8v3h-2.4v-8h2.4v3.1h2.8V155h2.3V163 M-155.9,173h-2.3v-3h-2.8v3h-2.4v-8h2.4v3.1h2.8
	V165h2.3V173 M-149.9,169.9l-1-2.6l-1,2.6H-149.9 M-149.3,171.7h-3.1l-0.5,1.3h-2.4l3.4-8h2.4l3.2,8h-2.5L-149.3,171.7
	 M-149.3,161.7h-3.1l-0.5,1.3h-2.4l3.4-8h2.4l3.2,8h-2.5L-149.3,161.7 M-149.9,159.9l-1-2.6l-1,2.6H-149.9"/>
<path class="st44" d="M-109.6,170.6c-1.6,1.6-3.5,2.4-5.7,2.4s-4.1-0.8-5.6-2.4l-0.6-0.7l-0.8,0.1c-1.4,0-2.5-0.5-3.5-1.5
	c-1-1-1.5-2.1-1.5-3.5c0-1.4,0.5-2.6,1.5-3.6c1-0.9,2.1-1.4,3.5-1.4l0.8,0.1l0.6-0.8c1.5-1.5,3.4-2.3,5.6-2.3s4.1,0.8,5.7,2.3
	l0.6,0.8l0.6-0.1c1.4,0,2.5,0.5,3.5,1.4c1,1,1.5,2.2,1.5,3.6c0,1.4-0.5,2.5-1.5,3.5c-1,1-2.2,1.5-3.5,1.5l-0.7-0.1L-109.6,170.6"/>
<path class="st45" d="M-445.3,340c-2.7,0-4,1.3-4,4v20c0,2.7,1.3,4,4,4h4l6,6l6-6h4c2.7,0,4-1.3,4-4v-20c0-2.7-1.3-4-4-4H-445.3
	 M-425.3,338c4,0,6,2,6,6v20c0,4-2,6-6,6h-3.2l-5.4,5.5c-0.4,0.4-0.9,0.5-1.4,0.5c-0.6,0-1-0.2-1.4-0.5l-5.4-5.5h-3.1c-4,0-6-2-6-6
	v-20c0-4,2-6,6-6H-425.3"/>
<path class="st1" d="M-445.3,340h20c2.7,0,4,1.3,4,4v20c0,2.7-1.3,4-4,4h-4l-6,6l-6-6h-4c-2.7,0-4-1.3-4-4v-20
	C-449.3,341.3-448,340-445.3,340"/>
<path class="st1" d="M-487.3,338h24c2.7,0,4,1.3,4,4v24c0,2.7-1.3,4-4,4h-24c-2.7,0-4-1.3-4-4v-24C-491.3,339.3-490,338-487.3,338"
	/>
<linearGradient id="SVGID_00000130634997056956609490000007839814743851495856_" gradientUnits="userSpaceOnUse" x1="-1330.5208" y1="373" x2="307.8793" y2="373" gradientTransform="matrix(0 -3.662109e-03 -3.662109e-03 0 43.9102 325)">
	<stop  offset="0" style="stop-color:#FFFFFF"/>
	<stop  offset="1" style="stop-color:#E2E2E2"/>
</linearGradient>
<path style="fill:url(#SVGID_00000130634997056956609490000007839814743851495856_);" d="M-469.3,370l-6,6l-6-6H-469.3"/>
<path class="st1" d="M-379.3,354c0,4.4-1.6,8.2-4.7,11.3c-3.1,3.1-6.9,4.7-11.3,4.7c-4.4,0-8.2-1.6-11.4-4.7
	c-3.1-3.1-4.6-6.9-4.6-11.3c0-4.4,1.5-8.2,4.6-11.4c3.1-3.1,6.9-4.6,11.4-4.6c4.4,0,8.2,1.6,11.3,4.6
	C-380.9,345.8-379.3,349.6-379.3,354"/>
<path class="st45" d="M-350.1,367c1.7-0.7,3.2-1.7,4.6-3.1c2.7-2.7,4.1-6,4.1-9.9c0-3.8-1.4-7.1-4.1-10c-2.7-2.7-6-4-9.9-4
	s-7.2,1.4-10,4c-2.7,2.8-4,6.1-4,10c0,3.9,1.3,7.2,4,9.9c1.4,1.4,3,2.5,4.8,3.1l5.2,7L-350.1,367 M-339.3,354
	c0,4.4-1.6,8.2-4.6,11.4c-1.5,1.4-3.1,2.5-4.9,3.3l-4.9,6.6l-1,0.7c-0.4,0.1-0.8,0.1-1.2,0c-0.4-0.1-0.7-0.4-1-0.7l-4.9-6.5
	c-1.8-0.8-3.4-1.9-4.9-3.4v-0.1c-3.1-3.1-4.6-6.9-4.6-11.3c0-4.4,1.5-8.1,4.6-11.4h0c3.2-3.1,6.9-4.6,11.4-4.6
	c4.4,0,8.2,1.6,11.3,4.6h0.1C-340.9,345.9-339.3,349.6-339.3,354"/>
<path class="st1" d="M-360.5,367c-1.7-0.7-3.3-1.7-4.8-3.1c-2.7-2.7-4-6-4-9.9c0-3.8,1.3-7.1,4-10c2.8-2.7,6.1-4,10-4s7.2,1.4,9.9,4
	c2.7,2.8,4.1,6.1,4.1,10c0,3.9-1.4,7.2-4.1,9.9c-1.4,1.4-3,2.5-4.6,3.1c-1.6,0.6-3.4,1-5.2,1S-358.9,367.7-360.5,367"/>
<linearGradient id="SVGID_00000031182559217625824340000010421393608189209743_" gradientUnits="userSpaceOnUse" x1="-1330.5208" y1="370.525" x2="307.8793" y2="370.525" gradientTransform="matrix(0 -4.882812e-03 -3.662109e-03 0 163.9102 322)">
	<stop  offset="0" style="stop-color:#FFFFFF"/>
	<stop  offset="1" style="stop-color:#E2E2E2"/>
</linearGradient>
<path style="fill:url(#SVGID_00000031182559217625824340000010421393608189209743_);" d="M-360.5,367c1.6,0.6,3.3,1,5.2,1
	s3.6-0.3,5.2-1l-5.2,7L-360.5,367"/>
<path class="st1" d="M-327.3,338h24c2.7,0,4,1.3,4,4v22c0,2.7-1.3,4-4,4h-24c-2.7,0-4-1.3-4-4v-22C-331.3,339.3-330,338-327.3,338
	 M-314.3,371.5c0,0.7-0.2,1.3-0.7,1.8c-0.5,0.5-1.1,0.8-1.8,0.8c-0.7,0-1.3-0.2-1.8-0.8c-0.5-0.5-0.8-1.1-0.8-1.8s0.2-1.3,0.8-1.8
	c0.5-0.5,1-0.7,1.8-0.7c0.7,0,1.3,0.2,1.8,0.7C-314.6,370.2-314.3,370.8-314.3,371.5 M-309.3,374c0,0.6-0.2,1-0.6,1.4
	c-0.4,0.4-0.8,0.6-1.4,0.6c-0.6,0-1.1-0.2-1.5-0.6c-0.4-0.4-0.5-0.8-0.5-1.4s0.2-1.1,0.5-1.5c0.4-0.4,0.9-0.5,1.5-0.5
	c0.6,0,1,0.2,1.4,0.5C-309.5,372.9-309.3,373.4-309.3,374"/>
<path class="st45" d="M-285.3,338h20c4,0,6,2,6,6v20c0,4-2,6-6,6h-5.5v0c0.9,0.1,1.7,0.4,2.3,1.1c0.8,0.8,1.1,1.7,1.1,2.9
	c0,1.1-0.4,2-1.1,2.8l-0.1,0.1c-0.7,0.7-1.7,1.1-2.8,1.1c-1.1,0-2.1-0.4-2.9-1.1l-0.9-1.2l-1.8,0.4c-1.2,0-2.3-0.4-3.1-1.3l-0.1-0.1
	c-0.9-0.9-1.3-1.9-1.3-3.1c0-0.5,0.1-1,0.2-1.5h-4.2c-4,0-6-2-6-6v-20C-291.3,340-289.3,338-285.3,338 M-269.3,374
	c0-0.6-0.2-1.1-0.6-1.5c-0.4-0.4-0.8-0.5-1.4-0.5c-0.6,0-1.1,0.2-1.5,0.5c-0.4,0.4-0.5,0.9-0.5,1.5s0.2,1,0.5,1.4
	c0.4,0.4,0.9,0.6,1.5,0.6c0.6,0,1-0.2,1.4-0.6C-269.5,375-269.3,374.6-269.3,374 M-274.3,371.5c0-0.7-0.2-1.3-0.7-1.8
	c-0.5-0.5-1.1-0.7-1.8-0.7c-0.7,0-1.3,0.2-1.8,0.7c-0.5,0.5-0.8,1.1-0.8,1.8s0.2,1.3,0.8,1.8c0.5,0.5,1,0.8,1.8,0.8
	c0.7,0,1.3-0.2,1.8-0.8C-274.6,372.8-274.3,372.2-274.3,371.5 M-285.3,340c-2.7,0-4,1.3-4,4v20c0,2.7,1.3,4,4,4h20c2.7,0,4-1.3,4-4
	v-20c0-2.7-1.3-4-4-4H-285.3"/>
<path class="st1" d="M-285.3,340h20c2.7,0,4,1.3,4,4v20c0,2.7-1.3,4-4,4h-20c-2.7,0-4-1.3-4-4v-20C-289.3,341.3-288,340-285.3,340
	 M-274.3,371.5c0,0.7-0.2,1.3-0.7,1.8c-0.5,0.5-1.1,0.8-1.8,0.8c-0.7,0-1.3-0.2-1.8-0.8c-0.5-0.5-0.8-1.1-0.8-1.8s0.2-1.3,0.8-1.8
	c0.5-0.5,1-0.7,1.8-0.7c0.7,0,1.3,0.2,1.8,0.7C-274.6,370.2-274.3,370.8-274.3,371.5 M-269.3,374c0,0.6-0.2,1-0.6,1.4
	c-0.4,0.4-0.8,0.6-1.4,0.6c-0.6,0-1.1-0.2-1.5-0.6c-0.4-0.4-0.5-0.8-0.5-1.4s0.2-1.1,0.5-1.5c0.4-0.4,0.9-0.5,1.5-0.5
	c0.6,0,1,0.2,1.4,0.5C-269.5,372.9-269.3,373.4-269.3,374"/>
<g>
	
		<linearGradient id="SVGID_00000075884699974369219800000007082281441927486630_" gradientUnits="userSpaceOnUse" x1="-1330.5208" y1="371.5" x2="307.8793" y2="371.5" gradientTransform="matrix(0 -5.493164e-03 -3.662109e-03 0 283.9102 323.5)">
		<stop  offset="0" style="stop-color:#FFFFFF"/>
		<stop  offset="1" style="stop-color:#E2E2E2"/>
	</linearGradient>
	<path style="fill:url(#SVGID_00000075884699974369219800000007082281441927486630_);" d="M-229.3,367l-6,9l-6-9H-229.3"/>
	<path class="st1" d="M-244.3,341h18c2.7,0,4,1.3,4,4v18c0,2.7-1.3,4-4,4h-18c-2.7,0-4-1.3-4-4v-18C-248.3,342.3-247,341-244.3,341"
		/>
	<path class="st1" d="M-233.2,339.1l12.8,12.8c1.4,1.4,1.4,2.8-0.1,4.2l-12.8,12.8c-1.4,1.4-2.8,1.4-4.2,0l-12.8-12.8
		c-1.4-1.4-1.5-2.8-0.1-4.2l12.8-12.8C-236,337.7-234.6,337.7-233.2,339.1"/>
</g>
<path class="st49" d="M-167.3,209v2h-2v-2H-167.3 M-169.3,211v2h-2v-2H-169.3 M-171.3,231h2v2h2v2h-2v-2h-2V231 M-161.3,235h12v2h-2
	v2h-2v-2h-4v2h4v2h-4v-2h-2v-2h-2V235 M-143.3,235v-2h2v-2h2v2h-2v2H-143.3 M-139.3,213h-2v-2h-2v-2h2v2h2V213 M-183.3,209h2v2h2v2
	h-2v-2h-2V209 M-179.3,231v2h-2v2h-2v-2h2v-2H-179.3 M-189.3,235v2h-2v2h-2v2h-4v-2h-2v-2h-2v-2H-189.3 M-207.3,235h-2v-2h-2v-2h2v2
	h2V235 M-211.3,213v-2h2v-2h2v2h-2v2H-211.3 M-131.3,213v-2h2v-2h2v2h-2v2H-131.3 M-103.3,209h2v2h2v2h-2v-2h-2V209 M-99.3,231v2h-2
	v2h-2v-2h2v-2H-99.3 M-109.3,235v2h-2v2h-2v2h-4v-2h-2v-2h-2v-2H-109.3 M-127.3,235h-2v-2h-2v-2h2v2h2V235 M-101.3,247h-2v-2h2V247
	h2v2h-2V247 M-127.3,245v2h-2v2h-2v-2h2v-2H-127.3 M-131.3,267h2v2h2v2h-2v-2h-2V267 M-121.3,271h12v2h-2v2h-2v2h-4v-2h4v-2h-4v2h-2
	v-2h-2V271 M-103.3,271v-2h2v-2h2v2h-2v2H-103.3 M-117.3,239h4v-2h-4V239 M-99.3,285h-2v-2h2V285 M-103.3,281h2v2h-2V281
	 M-109.3,307v2h-2v2h-2v-2h-4v2h-2v-2h-2v-2H-109.3 M-113.3,311v2h-4v-2H-113.3 M-99.3,303v2h-2v-2H-99.3 M-101.3,305v2h-2v-2
	H-101.3 M-141.3,247h-2v-2h2V247h2v2h-2V247 M-167.3,245v2h-2v2h-2v-2h2v-2H-167.3 M-171.3,267h2v2h2v2h-2v-2h-2V267 M-161.3,271h12
	v2h-2v2h-2v2h-4v-2h4v-2h-4v2h-2v-2h-2V271 M-143.3,271v-2h2v-2h2v2h-2v2H-143.3 M-143.3,281h2v2h2v2h-2v-2h-2V281 M-139.3,303v2h-2
	v2h-2v-2h2v-2H-139.3 M-149.3,307v2h-2v2h-2v2h-4v-2h-2v-2h-2v-2H-149.3 M-167.3,307h-2v-2h-2v-2h2v2h2V307 M-171.3,285v-2h2v-2h2v2
	h-2v2H-171.3 M-129.3,283v2h-2v-2H-129.3v-2h2v2H-129.3 M-131.3,303h2v2h2v2h-2v-2h-2V303 M-181.3,247h-2v-2h2V247h2v2h-2V247
	 M-207.3,245v2h-2v2h-2v-2h2v-2H-207.3 M-211.3,267h2v2h2v2h-2v-2h-2V267 M-201.3,271h12v2h-2v2h-2v-2h-4v2h4v2h-4v-2h-2v-2h-2V271
	 M-183.3,271v-2h2v-2h2v2h-2v2H-183.3 M-197.3,239h4v-2h-4V239 M-183.3,281h2v2h2v2h-2v-2h-2V281 M-179.3,303v2h-2v2h-2v-2h2v-2
	H-179.3 M-189.3,307v2h-2v2h-2v2h-4v-2h-2v-2h-2v-2H-189.3 M-207.3,307h-2v-2h-2v-2h2v2h2V307 M-211.3,285v-2h2v-2h2v2h-2v2H-211.3
	 M-191.3,299v2h-2v-2H-191.3 M-197.3,301h-2v-2h2V301 M-197.3,311h4v-2h-4V311 M-157.3,311h4v-2h-4V311 M-331.3,213v-2h2v-2h2v2h-2
	v2H-331.3 M-303.3,209h2v2h2v2h-2v-2h-2V209 M-299.3,231v2h-2v2h-2v-2h2v-2H-299.3 M-309.3,235v2h-2v2h-2v2h-4v-2h-2v-2h-2v-2
	H-309.3 M-327.3,235h-2v-2h-2v-2h2v2h2V235 M-341.3,211h-2v-2h2V211h2v2h-2V211 M-367.3,209v2h-2v2h-2v-2h2v-2H-367.3 M-371.3,231h2
	v2h2v2h-2v-2h-2V231 M-361.3,235h12v2h-2v2h-2v-2h-4v2h4v2h-4v-2h-2v-2h-2V235 M-343.3,235v-2h2v-2h2v2h-2v2H-343.3 M-287.3,209v2
	h-2v-2H-287.3 M-289.3,211v2h-2v-2H-289.3 M-291.3,231h2v2h2v2h-2v-2h-2V231 M-281.3,235h12v2h-2v2h-2v-2h-4v2h-2v-2h-2V235
	 M-263.3,235v-2h2v-2h2v2h-2v2H-263.3 M-259.3,213h-2v-2h-2v-2h2v2h2V213 M-247.3,209v2h-2v-2H-247.3 M-249.3,211v2h-2v-2H-249.3
	 M-251.3,231h2v2h2v2h-2v-2h-2V231 M-241.3,235h12v2h-2v2h-2v-2h-4v2h4v2h-4v-2h-2v-2h-2V235 M-223.3,235v-2h2v-2h2v2h-2v2H-223.3
	 M-219.3,213h-2v-2h-2v-2h2v2h2V213 M-491.3,213v-2h2v-2h2v2h-2v2H-491.3 M-463.3,209h2v2h2v2h-2v-2h-2V209 M-459.3,231v2h-2v2h-2
	v-2h2v-2H-459.3 M-469.3,235v2h-2v2h-2v2h-4v-2h-2v-2h-2v-2H-469.3 M-487.3,235h-2v-2h-2v-2h2v2h2V235 M-451.3,213v-2h2v-2h2v2h-2v2
	H-451.3 M-423.3,209h2v2h2v2h-2v-2h-2V209 M-419.3,231v2h-2v2h-2v-2h2v-2H-419.3 M-429.3,235v2h-2v2h-2v2h-4v-2h-2v-2h-2v-2H-429.3
	 M-447.3,235h-2v-2h-2v-2h2v2h2V235 M-407.3,209v2h-2v-2H-407.3 M-409.3,211v2h-2v-2H-409.3 M-411.3,231h2v2h2v2h-2v-2h-2V231
	 M-401.3,235h12v2h-2v2h-2v-2h-4v2h4v2h-4v-2h-2v-2h-2V235 M-383.3,235v-2h2v-2h2v2h-2v2H-383.3 M-379.3,213h-2v-2h-2v-2h2v2h2V213
	 M-371.3,249v-2h2v-2h2v2h-2v2H-371.3 M-343.3,245h2v2h2v2h-2v-2h-2V245 M-339.3,267v2h-2v2h-2v-2h2v-2H-339.3 M-349.3,271v2h-2v2
	h-2v2h-4v-2h-2v-2h-2v-2H-349.3 M-367.3,271h-2v-2h-2v-2h2v2h2V271 M-383.3,245h2v2h2v2h-2v-2h-2V245 M-379.3,267v2h-2v2h-2v-2h2v-2
	H-379.3 M-389.3,271v2h-2v2h-2v2h-4v-2h-2v-2h-2v-2H-389.3 M-407.3,271h-2v-2h-2v-2h2v2h2V271 M-411.3,249v-2h2v-2h2v2h-2v2H-411.3
	 M-397.3,275h4v-2h-4V275 M-381.3,283h-2v-2h2V283h2v2h-2V283 M-407.3,281v2h-2v2h-2v-2h2v-2H-407.3 M-411.3,303h2v2h2v2h-2v-2h-2
	V303 M-401.3,307h12v2h-2v2h-2v-2h-4v2h-2v-2h-2V307 M-383.3,307v-2h2v-2h2v2h-2v2H-383.3 M-371.3,285v-2h2v-2h2v2h-2v2H-371.3
	 M-343.3,281h2v2h2v2h-2v-2h-2V281 M-339.3,303v2h-2v2h-2v-2h2v-2H-339.3 M-349.3,307v2h-2v2h-2v2h-4v-2h-2v-2h-2v-2H-349.3
	 M-367.3,307h-2v-2h-2v-2h2v2h2V307 M-423.3,245h2v2h2v2h-2v-2h-2V245 M-419.3,267v2h-2v2h-2v-2h2v-2H-419.3 M-429.3,271v2h-2v2h-2
	v2h-4v-2h-2v-2h-2v-2H-429.3 M-447.3,271h-2v-2h-2v-2h2v2h2V271 M-451.3,249v-2h2v-2h2v2h-2v2H-451.3 M-437.3,239h4v-2h-4V239
	 M-421.3,283h-2v-2h2V283h2v2h-2V283 M-437.3,275h4v-2h-4V275 M-447.3,281v2h-2v2h-2v-2h2v-2H-447.3 M-451.3,303h2v2h2v2h-2v-2h-2
	V303 M-441.3,307h12v2h-2v2h-2v-2h-4v2h4v2h-4v-2h-2v-2h-2V307 M-423.3,307v-2h2v-2h2v2h-2v2H-423.3 M-393.3,311v2h-4v-2H-393.3
	 M-463.3,245h2v2h2v2h-2v-2h-2V245 M-459.3,267v2h-2v2h-2v-2h2v-2H-459.3 M-469.3,271v2h-2v2h-2v2h-4v-2h-2v-2h-2v-2H-469.3
	 M-487.3,271h-2v-2h-2v-2h2v2h2V271 M-491.3,249v-2h2v-2h2v2h-2v2H-491.3 M-477.3,239h4v-2h-4V239 M-477.3,275h4v-2h-4V275
	 M-461.3,283h-2v-2h2V283h2v2h-2V283 M-487.3,281v2h-2v2h-2v-2h2v-2H-487.3 M-491.3,303h2v2h2v2h-2v-2h-2V303 M-481.3,307h12v2h-2v2
	h-2v2h-4v-2h-2v-2h-2V307 M-463.3,307v-2h2v-2h2v2h-2v2H-463.3 M-473.3,311v-2h-4v2H-473.3 M-221.3,247h-2v-2h2V247h2v2h-2V247
	 M-247.3,245v2h-2v2h-2v-2h2v-2H-247.3 M-251.3,267h2v2h2v2h-2v-2h-2V267 M-241.3,271h12v2h-2v2h-2v-2h-4v2h-2v-2h-2V271
	 M-223.3,271v-2h2v-2h2v2h-2v2H-223.3 M-233.3,275v2h-4v-2H-233.3 M-223.3,281h2v2h2v2h-2v-2h-2V281 M-219.3,303v2h-2v2h-2v-2h2v-2
	H-219.3 M-229.3,307v2h-2v2h-2v2h-4v-2h-2v-2h-2v-2H-229.3 M-247.3,307h-2v-2h-2v-2h2v2h2V307 M-251.3,285v-2h2v-2h2v2h-2v2H-251.3
	 M-263.3,245h2v2h2v2h-2v-2h-2V245 M-259.3,267v2h-2v2h-2v-2h2v-2H-259.3 M-269.3,271v2h-2v2h-2v2h-4v-2h-2v-2h-2v-2H-269.3
	 M-287.3,271h-2v-2h-2v-2h2v2h2V271 M-291.3,249v-2h2v-2h2v2h-2v2H-291.3 M-273.3,239v2h-4v-2H-273.3 M-259.3,285h-2v-2h2V285
	 M-277.3,275h4v-2h-4V275 M-263.3,281h2v2h-2V281 M-269.3,307v2h-2v2h-2v-2h-4v2h-2v-2h-2v-2H-269.3 M-273.3,311v2h-4v-2H-273.3
	 M-263.3,307v-2h2v-2h2v2h-2v2H-263.3 M-237.3,311h4v-2h-4V311 M-303.3,245h2v2h2v2h-2v-2h-2V245 M-299.3,267v2h-2v2h-2v-2h2v-2
	H-299.3 M-309.3,271v2h-2v2h-2v2h-4v-2h-2v-2h-2v-2H-309.3 M-327.3,271h-2v-2h-2v-2h2v2h2V271 M-331.3,249v-2h2v-2h2v2h-2v2H-331.3
	 M-317.3,239h4v-2h-4V239 M-317.3,275h4v-2h-4V275 M-303.3,281h2v2h2v2h-2v-2h-2V281 M-299.3,303v2h-2v2h-2v-2h2v-2H-299.3
	 M-309.3,307v2h-2v2h-2v2h-4v-2h-2v-2h-2v-2H-309.3 M-327.3,307h-2v-2h-2v-2h2v2h2V307 M-331.3,285v-2h2v-2h2v2h-2v2H-331.3
	 M-289.3,283v2h-2v-2H-289.3v-2h2v2H-289.3 M-291.3,303h2v2h2v2h-2v-2h-2V303 M-357.3,275h4v-2h-4V275 M-357.3,311h4v-2h-4V311
	 M-317.3,311h4v-2h-4V311"/>
<path class="st1" d="M-317.3,311v-2h4v2H-317.3 M-169.3,211h2v-2h24v2h2v2h2v18h-2v2h-2v2h-6h-12h-6v-2h-2v-2h-2v-18h2V211
	 M-179.3,213v18h-2v2h-2v2h-6h-12h-6v-2h-2v-2h-2v-18h2v-2h2v-2h24v2h2v2H-179.3 M-187.3,223h2v-2v-6v-2h-2h-4h-2v2v6v2h2v2h4V223
	 M-197.3,215v-2h-2h-4h-2v2v6v2h2v2h4v-2h2v-2V215 M-191.3,227v4h4v-4H-191.3 M-157.3,213h-2v2v6v2h2v2h4v-2h2v-2v-6v-2h-2H-157.3
	 M-157.3,227v4h4v-4H-157.3 M-127.3,209h24v2h2v2h2v18h-2v2h-2v2h-6h-12h-6v-2h-2v-2h-2v-18h2v-2h2V209 M-119.3,213h-2v2v4h4v-2h4v4
	h-2h-2v2v2h6h2v-2v-8v-2h-2H-119.3 M-117.3,227v4h4v-4H-117.3 M-103.3,245v2h2v2h2v18h-2v2h-2v2h-6h-12h-6v-2h-2v-2h-2v-18h2v-2h2
	v-2H-103.3 M-117.3,239v-2h4v2H-117.3 M-123.3,267h4v-2h2v-10h6v4h-2v2h-2v2v2h2h4v-2h2v-14h-14v12h-2v2h-2v2v2H-123.3 M-113.3,275
	h-4v-2h4V275 M-101.3,283v2h2v18h-2v2h-2v2h-6h-12h-6v-2h-2v-2h-2v-18h2v-2h2v-2h24v2H-101.3 M-107.3,299h2v-2h2v-6h-2v-2h-2h-2v-2
	h-2v-2h-8v2h-2v2h-2h-2v2h-2v6h2v2h2h2v2h2v2h8v-2h2v-2H-107.3 M-117.3,311v-2h4v2H-117.3 M-143.3,245v2h2v2h2v18h-2v2h-2v2h-6h-12
	h-6v-2h-2v-2h-2v-18h2v-2h2v-2H-143.3 M-153.3,239h-4v-2h4V239 M-147.3,251h-2h-2v2v2v2h2h2h2v-2v-2v-2H-147.3 M-155.3,251v-2h-2h-2
	h-2v2v2v2h2h2h2v-2V251 M-149.3,263v-2h-2h-2h-2v2v2v2h2h2h2v-2V263 M-153.3,275h-4v-2h4V275 M-151.3,285h-2v2v6h2v-2h4v2h2v-6v-2
	h-2H-151.3 M-139.3,285v18h-2v2h-2v2h-6h-12h-6v-2h-2v-2h-2v-18h2v-2h2v-2h24v2h2v2H-139.3 M-163.3,259h-2v2v2v2h2h2h2v-2v-2v-2h-2
	H-163.3 M-183.3,245v2h2v2h2v18h-2v2h-2v2h-6h-12h-6v-2h-2v-2h-2v-18h2v-2h2v-2H-183.3 M-197.3,239v-2h4v2H-197.3 M-187.3,255v-2h-4
	h-2v-4h-4v4h-2h-4v2v2v2h2v4v2h2h2v-2h4v2h2h2v-2v-4h2v-2V255 M-197.3,275v-2h4v2H-197.3 M-179.3,285v18h-2v2h-2v2h-6h-12h-6v-2h-2
	v-2h-2v-18h2v-2h2v-2h24v2h2v2H-179.3 M-163.3,287v-2h-2v8h2v-2h4v2h2v-8h-2v2H-163.3 M-163.3,297v-2h-2v8h2v-2h4v2h2v-8h-2v2
	H-163.3 M-191.3,297v-2h2v-8h-2v-2h-8v2h-2v8h2v2v2v2h2v2h4v-2h2v-2V297 M-197.3,311v-2h4v2H-197.3 M-157.3,311v-2h4v2H-157.3
	 M-145.3,297v-2h-2h-4h-2v2v6h2v-2h4v2h2V297 M-327.3,209h24v2h2v2h2v18h-2v2h-2v2h-6h-12h-6v-2h-2v-2h-2v-18h2v-2h2V209
	 M-343.3,209v2h2v2h2v18h-2v2h-2v2h-6h-12h-6v-2h-2v-2h-2v-18h2v-2h2v-2H-343.3 M-357.3,221v4h4v-4H-357.3 M-363.3,221v4h4v-4
	H-363.3 M-351.3,221v4h4v-4H-351.3 M-319.3,221v-2h2v-4h-6v2h-2v6h2v2h2v2h4v2h4v-2h4v-2h2v-2h2v-6h-2v-2h-4v2h-2v2h-2v2v2h-2v-2
	H-319.3 M-313.3,223v2h-2v-2H-313.3 M-289.3,211h2v-2h24v2h2v2h2v18h-2v2h-2v2h-6h-12h-6v-2h-2v-2h-2v-18h2V211 M-283.3,217v6h2v2h2
	v2h2v2h4v-2h2v-2h2v-2h2v-6h-2v-2h-4v2h-4v-2h-4v2H-283.3 M-249.3,211h2v-2h24v2h2v2h2v18h-2v2h-2v2h-6h-12h-6v-2h-2v-2h-2v-18h2
	V211 M-239.3,215h-2h-2v2h-2v2h2v2h2v2h2v-2h2v-2h2v-2h-2v-2H-239.3 M-231.3,221h-2v2h-2v2h2v2h2v2h2v-2h2v-2h2v-2h-2v-2h-2H-231.3
	 M-203.3,227v4h4v-4H-203.3 M-487.3,209h24v2h2v2h2v18h-2v2h-2v2h-6h-12h-6v-2h-2v-2h-2v-18h2v-2h2V209 M-447.3,209h24v2h2v2h2v18
	h-2v2h-2v2h-6h-12h-6v-2h-2v-2h-2v-18h2v-2h2V209 M-443.3,221v4h4v-4H-443.3 M-409.3,211h2v-2h24v2h2v2h2v18h-2v2h-2v2h-6h-12h-6v-2
	h-2v-2h-2v-18h2V211 M-403.3,221v4h4v-4H-403.3 M-397.3,221v4h4v-4H-397.3 M-367.3,245h24v2h2v2h2v18h-2v2h-2v2h-6h-12h-6v-2h-2v-2
	h-2v-18h2v-2h2V245 M-361.3,253v4h4v-4H-361.3 M-379.3,249v18h-2v2h-2v2h-6h-12h-6v-2h-2v-2h-2v-18h2v-2h2v-2h24v2h2v2H-379.3
	 M-393.3,239h-4v-2h4V239 M-391.3,255v-4h-2v4v4v4h2v-4V255 M-397.3,257v-4h-2v4v4v4h2v-4V257 M-387.3,257v-4h-2v4v4v4h2v-4V257
	 M-397.3,275v-2h4v2H-397.3 M-383.3,281v2h2v2h2v18h-2v2h-2v2h-6h-12h-6v-2h-2v-2h-2v-18h2v-2h2v-2H-383.3 M-361.3,263v2h2h8h2v-2
	v-2h-2h-2v2h-4v-2h-2h-2V263 M-367.3,281h24v2h2v2h2v18h-2v2h-2v2h-6h-12h-6v-2h-2v-2h-2v-18h2v-2h2V281 M-401.3,255v-4h-2v4v4v4h2
	v-4V255 M-419.3,249v18h-2v2h-2v2h-6h-12h-6v-2h-2v-2h-2v-18h2v-2h2v-2h24v2h2v2H-419.3 M-437.3,239v-2h4v2H-437.3 M-431.3,257h-2v2
	h-2v2v4h12v-4h-2v-2h2v-2v-6h-12v4h4V257 M-439.3,259v-6h-8v4h2v2h-2v2v4h8v-4V259 M-437.3,275v-2h4v2H-437.3 M-423.3,281v2h2v2h2
	v18h-2v2h-2v2h-6h-12h-6v-2h-2v-2h-2v-18h2v-2h2v-2H-423.3 M-401.3,291h-2v2h4h2v-2v-4h-2v2h-2V291 M-399.3,295h-4v2h2v2h2v2h2v-4
	v-2H-399.3 M-397.3,311v-2h4v2H-397.3 M-429.3,293v-2h-4v2v2h-2v-4h-2v-4v-2h-4v2v4h-2v6h2v2h4v-2h2v4h2v2h4v-2h2v-4v-2h-2V293
	 M-437.3,311v-2h4v2H-437.3 M-361.3,289v4h2v2h2v2h-4v4h4v2h4v-2h2v-2h2v-4h-2v-2h-2v-2h4v-4h-4v-2h-4v2h-2v2H-361.3 M-391.3,293h4
	v-2h-2v-2h-2v-2h-2v4v2H-391.3 M-389.3,297h2v-2h-4h-2v2v4h2v-2h2V297 M-459.3,249v18h-2v2h-2v2h-6h-12h-6v-2h-2v-2h-2v-18h2v-2h2
	v-2h24v2h2v2H-459.3 M-477.3,239v-2h4v2H-477.3 M-477.3,255v2h-2v2h-2v2v4h12v-4h-2v-2h2v-2v-6h-12v4H-477.3 M-477.3,275v-2h4v2
	H-477.3 M-473.3,287v-2h-4v2v4h-2v2v6h2v2h4v-2h2v-6v-2h-2V287 M-463.3,281v2h2v2h2v18h-2v2h-2v2h-6h-12h-6v-2h-2v-2h-2v-18h2v-2h2
	v-2H-463.3 M-477.3,311v-2h4v2H-477.3 M-223.3,245v2h2v2h2v18h-2v2h-2v2h-6h-12h-6v-2h-2v-2h-2v-18h2v-2h2v-2H-223.3 M-233.3,239h-4
	v-2h4V239 M-231.3,251v-2h-2h-4h-2v2v6v2h-2v-2v-2h-2h-4v4v2h2v2h2v2h2h2v-4v-2h2v2h4v-2h2v2v4h2h2v-2h2v-2h2v-2v-4h-4h-2v2v2h-2v-2
	V251 M-237.3,275v-2h4v2H-237.3 M-219.3,285v18h-2v2h-2v2h-6h-12h-6v-2h-2v-2h-2v-18h2v-2h2v-2h24v2h2v2H-219.3 M-259.3,249v18h-2v2
	h-2v2h-6h-12h-6v-2h-2v-2h-2v-18h2v-2h2v-2h24v2h2v2H-259.3 M-277.3,239v-2h4v2H-277.3 M-269.3,253h-2v2h-2v4h4v-2h2v-4H-269.3
	 M-281.3,253h-2v4h2v2h4v-4h-2v-2H-281.3 M-269.3,263v-2h-2h-8h-2v2v2h2h2v-2h4v2h2h2V263 M-277.3,275v-2h4v2H-277.3 M-261.3,283v2
	h2v18h-2v2h-2v2h-6h-12h-6v-2h-2v-2h-2v-18h2v-2h2v-2h24v2H-261.3 M-239.3,295v-2h2v-2h4v2h2v2h-2v2h-4v-2H-239.3 M-243.3,291v6h2v2
	h2v2h8v-2h2v-2h2v-6h-2v-2h-2v-2h-8v2h-2v2H-243.3 M-267.3,289v-2h-2h-2v2h-2v2h-4v-2h-2v-2h-2h-2v2v2h2v2h2v2h-2v2h-2v2v2h2h2v-2h2
	v-2h4v2h2v2h2h2v-2v-2h-2v-2h-2v-2h2v-2h2V289 M-277.3,311v-2h4v2H-277.3 M-237.3,311v-2h4v2H-237.3 M-299.3,249v18h-2v2h-2v2h-6
	h-12h-6v-2h-2v-2h-2v-18h2v-2h2v-2h24v2h2v2H-299.3 M-317.3,239v-2h4v2H-317.3 M-321.3,253v4h4v-4H-321.3 M-313.3,253v4h4v-4H-313.3
	 M-309.3,263v-2h-2h-8h-2v2v2h2h2v-2h4v2h2h2V263 M-317.3,275v-2h4v2H-317.3 M-299.3,285v18h-2v2h-2v2h-6h-12h-6v-2h-2v-2h-2v-18h2
	v-2h2v-2h24v2h2v2H-299.3 M-353.3,239h-4v-2h4V239 M-353.3,253v4h4v-4H-353.3 M-357.3,275v-2h4v2H-357.3 M-319.3,293v4h4v-2h2v2h-2
	v2h-4v-2h-2v-6h2V293 M-313.3,293v-2h-4h-2v-2h8v2h2v8h-2v2h2v-2h2v-10h-2v-2h-12v2h-2v10h2v2h8v-2h2v-6H-313.3 M-357.3,311v-2h4v2
	H-357.3"/>
<path class="st50" d="M-185.3,221v2h-2v-2H-185.3 M-191.3,223h-2v-2h2V223 M-193.3,215v-2h2v2H-193.3 M-187.3,213h2v2h-2V213
	 M-199.3,213h2v2h-2V213 M-197.3,221v2h-2v-2H-197.3 M-203.3,223h-2v-2h2V223 M-205.3,215v-2h2v2H-205.3"/>
<path class="st5" d="M-205.3,215h2v-2h4v2h2v6h-2v2v2h-4v-2v-2h-2V215 M-185.3,221h-2v2v2h-4v-2v-2h-2v-6h2v-2h4v2h2V221
	 M-191.3,227h4v4h-4V227 M-115.3,263v-2h2v-2h2v-4h-6v10h-2v2h-4v-2h-2v-2h2v-2h2v-12h14v14h-2v2h-4v-2H-115.3 M-151.3,285h4v2h-4v2
	h4v-2h2v6h-2v-2h-4v2h-2v-6h2V285 M-159.3,287v-2h2v8h-2v-2h-4v2h-2v-8h2v2v2h4V287 M-159.3,297v-2h2v8h-2v-2h-4v2h-2v-8h2v2v2h4
	V297 M-145.3,297v6h-2v-2h-4v2h-2v-6h2v2h4v-2h-4v-2h4v2H-145.3 M-357.3,221h4v4h-4V221 M-351.3,221h4v4h-4V221 M-363.3,221h4v4h-4
	V221 M-203.3,227h4v4h-4V227 M-443.3,221h4v4h-4V221 M-403.3,221h4v4h-4V221 M-397.3,221h4v4h-4V221 M-361.3,253h4v4h-4V253
	 M-359.3,265v-2h-2v-2h2v2h2h4h2v-2h2v2h-2v2H-359.3 M-433.3,259h2v-2h2v-2h-2h-4v-4h12v6h-2v2h-2v2h2h2v4h-12v-4h2V259 M-445.3,257
	h-2v-4h8v6h-2v2h2v4h-8v-4h2v-2h2v-2H-445.3 M-477.3,255h-4v-4h12v6h-2v2h-2v2h2h2v4h-12v-4h2v-2h2v-2h2v-2H-477.3 M-269.3,253h2v4
	h-2v2h-4v-4h2h2V253 M-279.3,255h2v4h-4v-2h-2v-4h2v2H-279.3 M-271.3,261v2h2v2h-2v-2h-2h-4h-2v-2H-271.3 M-313.3,253h4v4h-4V253
	 M-321.3,253h4v4h-4V253 M-309.3,263v2h-2v-2h-2h-4h-2v2h-2v-2h2v-2h8v2H-309.3 M-279.3,265h-2v-2h2V265 M-353.3,253h4v4h-4V253
	 M-315.3,295v2h-4v-4h2v-2h4v2h-2V295 M-319.3,291h-2v6h2v2h4v-2h2v-2v-2h2v6h2v-8h-2v-2h-8V291 M-311.3,299h-2v2h-8v-2h-2v-10h2v-2
	h12v2h2v10h-2v2h-2V299"/>
<path class="st51" d="M-159.3,215v-2h2v2H-159.3 M-153.3,213h2v2h-2V213 M-151.3,221v2h-2v-2H-151.3 M-157.3,223h-2v-2h2V223
	 M-401.3,291v-2h2v2h2v2h-2v-2H-401.3 M-399.3,295h2v2h-2v2h-2v-2h2V295 M-389.3,291h-2v2h-2v-2h2v-2h2V291 M-389.3,297v2h-2v-2h-2
	v-2h2v2H-389.3"/>
<path class="st14" d="M-389.3,297h-2v-2h4v2H-389.3 M-157.3,213h4v2h2v6h-2v2v2h-4v-2v-2h-2v-6h2V213 M-157.3,227h4v4h-4V227
	 M-399.3,293h-4v-2h2h2V293 M-399.3,289v-2h2v4h-2V289 M-401.3,297h-2v-2h4v2H-401.3 M-397.3,297v4h-2v-2v-2H-397.3 M-389.3,291h2v2
	h-4v-2H-389.3 M-393.3,291v-4h2v2v2H-393.3 M-391.3,299v2h-2v-4h2V299 M-267.3,289v2h-2v2h-2v2h2v2h2v2h-2v2h-2v-2h-2v-2h-4v2h-2v2
	h-2v-2h-2v-2h2v-2h2v-2h-2v-2h-2v-2h2v-2h2v2h2v2h4v-2h2v-2h2v2H-267.3"/>
<path class="st52" d="M-121.3,215v-2h2v2H-121.3 M-111.3,213h2v2h-2V213 M-109.3,223v2h-2v-2H-109.3"/>
<polyline class="st16" points="-109.3,223 -111.3,223 -111.3,225 -117.3,225 -117.3,223 -115.3,223 -115.3,221 -113.3,221 
	-113.3,217 -117.3,217 -117.3,219 -121.3,219 -121.3,215 -119.3,215 -119.3,213 -111.3,213 -111.3,215 -109.3,215 -109.3,223 "/>
<polyline class="st16" points="-117.3,227 -113.3,227 -113.3,231 -117.3,231 -117.3,227 "/>
<polyline class="st16" points="-429.3,293 -429.3,295 -429.3,297 -427.3,297 -427.3,301 -429.3,301 -429.3,303 -433.3,303 
	-433.3,301 -435.3,301 -435.3,297 -437.3,297 -437.3,299 -441.3,299 -441.3,297 -443.3,297 -443.3,291 -441.3,291 -441.3,287 
	-437.3,287 -437.3,291 -435.3,291 -435.3,295 -435.3,297 -433.3,297 -433.3,295 -433.3,293 -429.3,293 "/>
<polyline class="st16" points="-473.3,287 -473.3,291 -473.3,293 -471.3,293 -471.3,299 -473.3,299 -473.3,301 -477.3,301 
	-477.3,299 -479.3,299 -479.3,293 -477.3,293 -477.3,291 -477.3,287 -473.3,287 "/>
<polyline class="st16" points="-243.3,291 -241.3,291 -241.3,289 -239.3,289 -239.3,287 -231.3,287 -231.3,289 -229.3,289 
	-229.3,291 -227.3,291 -227.3,297 -229.3,297 -229.3,299 -231.3,299 -231.3,301 -239.3,301 -239.3,299 -241.3,299 -241.3,297 
	-243.3,297 -243.3,291 "/>
<polyline class="st16" points="-239.3,293 -239.3,295 -239.3,297 -237.3,297 -233.3,297 -231.3,297 -231.3,295 -231.3,293 
	-231.3,291 -233.3,291 -237.3,291 -239.3,291 -239.3,293 "/>
<path class="st53" d="M-117.3,223v-2h2v2H-117.3"/>
<path class="st54" d="M-115.3,263h2v2h-2V263 M-125.3,265h2v2h-2V265"/>
<path class="st44" d="M-107.3,289h2v2h2v6h-2v2h-2v-2h-4v4v2h-8v-2v-4h-4v2h-2v-2h-2v-6h2v-2h2v2h4v-4v-2h8v2v4h4V289 M-193.3,301v2
	h-4v-2H-193.3"/>
<path class="st55" d="M-107.3,299h-2v2h-2v-4h4V299 M-119.3,301h-2v-2h-2v-2h4V301 M-123.3,289h2v-2h2v4h-4V289 M-111.3,287h2v2h2v2
	h-4V287"/>
<path class="st24" d="M-149.3,251h2v2h2v2h-2v2h-2v-2h-2v-2h2V251 M-157.3,249h2v2h-2V249 M-155.3,253v2h-2v-2h-2v-2h2v2H-155.3
	 M-159.3,255h-2v-2h2V255 M-161.3,251v-2h2v2H-161.3 M-149.3,263h-2v-2h2V263 M-153.3,261v2h2v2h2v2h-2v-2h-2v2h-2v-2h2v-2h-2v-2
	H-153.3 M-163.3,259h2v2h2v2h-2v2h-2v-2h-2v-2h2V259 M-187.3,255v2h-2v2h-2v4h-2h-4h-2v-4h-2v-2h-2v-2h4v-2h2v-4h4v4h2v2H-187.3
	 M-199.3,297v-2h-2v-8h2v-2h8v2h2v8h-2v2h-2v-4h-4v4H-199.3 M-361.3,289h2v-2h2v-2h4v2h4v4h-4v2h2v2h2v4h-2v2h-2v2h-4v-2h-4v-4h4v-2
	h-2v-2h-2V289 M-231.3,251v6h-2v2v2h-4v-2v-2h-2v-6h2v-2h4v2H-231.3 M-229.3,259v-2h2v-2h4v4h-2v2h-2v2h-2v2h-2v-4h2V259
	 M-239.3,261v4h-2v-2h-2v-2h-2v-2h-2v-4h4v2h2v2v2H-239.3"/>
<path class="st56" d="M-239.3,261h-2v-2h2v-2h2v2h-2V261 M-147.3,251h2v2h-2V251 M-145.3,255v2h-2v-2H-145.3 M-149.3,257h-2v-2h2
	V257 M-151.3,253v-2h2v2H-151.3 M-155.3,251v2h-2v-2h-2v-2h2v2H-155.3 M-157.3,255h-2v-2h-2v-2h2v2h2V255 M-151.3,261v2h2v2h-2v-2
	h-2v-2H-151.3 M-155.3,265v-2h2v2H-155.3 M-153.3,267v-2h2v2H-153.3 M-165.3,261v-2h2v2H-165.3 M-161.3,259h2v2h-2V259 M-159.3,263
	v2h-2v-2H-159.3 M-163.3,265h-2v-2h2V265 M-233.3,249h2v2h-2V249 M-231.3,257v2h2v2h-2v-2h-2v-2H-231.3 M-229.3,257v-2h2v2H-229.3
	 M-223.3,259v2h-2v2h-2v2h-2v-2h2v-2h2v-2H-223.3 M-241.3,265h-2v-2h-2v-2h-2v-2h2v2h2v2h2V265 M-243.3,255h2v2h-2V255 M-239.3,251
	v-2h2v2H-239.3"/>
<polyline class="st57" points="-153.3,287 -153.3,285 -151.3,285 -151.3,287 -153.3,287 "/>
<polyline class="st57" points="-147.3,285 -145.3,285 -145.3,287 -147.3,287 -147.3,289 -151.3,289 -151.3,287 -147.3,287 
	-147.3,285 "/>
<polyline class="st57" points="-163.3,287 -159.3,287 -159.3,289 -163.3,289 -163.3,287 "/>
<polyline class="st57" points="-163.3,297 -159.3,297 -159.3,299 -163.3,299 -163.3,297 "/>
<polyline class="st57" points="-147.3,295 -145.3,295 -145.3,297 -147.3,297 -147.3,295 "/>
<polyline class="st57" points="-153.3,297 -153.3,295 -151.3,295 -151.3,297 -147.3,297 -147.3,299 -151.3,299 -151.3,297 
	-153.3,297 "/>
<polyline class="st57" points="-391.3,259 -391.3,263 -393.3,263 -393.3,259 -391.3,259 "/>
<polyline class="st57" points="-397.3,261 -397.3,265 -399.3,265 -399.3,261 -397.3,261 "/>
<polyline class="st57" points="-389.3,261 -387.3,261 -387.3,265 -389.3,265 -389.3,261 "/>
<polyline class="st57" points="-359.3,265 -361.3,265 -361.3,263 -359.3,263 -359.3,265 "/>
<polyline class="st57" points="-359.3,261 -357.3,261 -357.3,263 -359.3,263 -359.3,261 "/>
<polyline class="st57" points="-353.3,263 -353.3,261 -351.3,261 -351.3,263 -349.3,263 -349.3,265 -351.3,265 -351.3,263 
	-353.3,263 "/>
<polyline class="st57" points="-401.3,259 -401.3,263 -403.3,263 -403.3,259 -401.3,259 "/>
<polyline class="st57" points="-431.3,257 -431.3,259 -433.3,259 -433.3,257 -431.3,257 -431.3,255 -429.3,255 -429.3,257 
	-431.3,257 "/>
<polyline class="st57" points="-433.3,259 -433.3,261 -435.3,261 -435.3,259 -433.3,259 "/>
<polyline class="st57" points="-425.3,261 -427.3,261 -427.3,259 -425.3,259 -425.3,257 -423.3,257 -423.3,259 -425.3,259 
	-425.3,261 "/>
<polyline class="st57" points="-439.3,259 -439.3,261 -441.3,261 -441.3,259 -439.3,259 "/>
<polyline class="st57" points="-447.3,261 -447.3,259 -445.3,259 -445.3,257 -443.3,257 -443.3,259 -445.3,259 -445.3,261 
	-447.3,261 "/>
<polyline class="st57" points="-481.3,261 -481.3,259 -479.3,259 -479.3,257 -477.3,257 -477.3,255 -475.3,255 -475.3,257 
	-477.3,257 -477.3,259 -479.3,259 -479.3,261 -481.3,261 "/>
<polyline class="st57" points="-469.3,257 -469.3,259 -471.3,259 -471.3,261 -473.3,261 -473.3,259 -471.3,259 -471.3,257 
	-469.3,257 "/>
<polyline class="st57" points="-271.3,255 -271.3,253 -269.3,253 -269.3,255 -271.3,255 "/>
<polyline class="st57" points="-281.3,253 -279.3,253 -279.3,255 -281.3,255 -281.3,253 "/>
<polyline class="st57" points="-269.3,263 -271.3,263 -271.3,261 -269.3,261 -269.3,263 "/>
<polyline class="st57" points="-279.3,261 -279.3,263 -277.3,263 -277.3,265 -279.3,265 -279.3,263 -281.3,263 -281.3,261 
	-279.3,261 "/>
<polyline class="st57" points="-273.3,263 -271.3,263 -271.3,265 -273.3,265 -273.3,263 "/>
<polyline class="st57" points="-311.3,261 -309.3,261 -309.3,263 -311.3,263 -311.3,261 "/>
<polyline class="st57" points="-311.3,265 -313.3,265 -313.3,263 -311.3,263 -311.3,265 "/>
<polyline class="st57" points="-317.3,263 -317.3,265 -319.3,265 -319.3,263 -317.3,263 "/>
<polyline class="st57" points="-321.3,263 -321.3,261 -319.3,261 -319.3,263 -321.3,263 "/>
<polyline class="st57" points="-315.3,295 -315.3,293 -313.3,293 -313.3,295 -315.3,295 "/>
<polyline class="st57" points="-317.3,291 -317.3,293 -319.3,293 -319.3,291 -317.3,291 "/>
<path class="st58" d="M-191.3,253h4v2h-4V253 M-189.3,259v4h-2v2h-2v-2h2v-4H-189.3 M-197.3,263v2h-2v-2h-2v-4h2v4H-197.3
	 M-203.3,255v-2h4v2H-203.3"/>
<path class="st59" d="M-187.3,257v2h-2v-2H-187.3 M-189.3,263v2h-2v-2H-189.3 M-199.3,265h-2v-2h2V265 M-201.3,259h-2v-2h2V259"/>
<path class="st42" d="M-197.3,297v-4h4v4H-197.3"/>
<path class="st43" d="M-197.3,297h4h2v2h-2v2h-4v-2h-2v-2H-197.3"/>
<path class="st7" d="M-315.3,221v-2h2v-2h2v-2h4v2h2v6h-2v2h-2v2h-4v2h-4v-2h-4v-2h-2v-2h-2v-6h2v-2h6v4h-2v2v2h2h2v2v2h2v-2v-2v-2
	H-315.3 M-283.3,217h2v-2h4v2h4v-2h4v2h2v6h-2v2h-2v2h-2v2h-4v-2h-2v-2h-2v-2h-2V217 M-239.3,215h2v2h2v2h-2v2h-2v2h-2v-2h-2v-2h-2
	v-2h2v-2h2v2h2V215 M-229.3,221h2v2h2v2h-2v2h-2v2h-2v-2h-2v-2h-2v-2h2v-2h2v2h2V221"/>
<path class="st60" d="M-229.3,221v2h-2v-2H-229.3 M-319.3,221h2v2h-2V221 M-315.3,223v-2h2v2H-315.3 M-313.3,225v2h-2v-2H-313.3
	 M-241.3,215h2v2h-2V215"/>
<path class="st61" d="M-393.3,255v-4h2v4H-393.3 M-399.3,257v-4h2v4H-399.3 M-387.3,257h-2v-4h2V257 M-403.3,255v-4h2v4H-403.3"/>
<path class="st62" d="M-403.3,255h2v4h-2V255 M-391.3,255v4h-2v-4H-391.3 M-397.3,257v4h-2v-4H-397.3 M-389.3,257h2v4h-2V257"/>
<path class="st63" d="M-433.3,293v-2h4v2H-433.3 M-429.3,295h2v2h-2V295 M-441.3,287v-2h4v2H-441.3 M-435.3,295h2v2h-2V295
	 M-477.3,287v-2h4v2H-477.3 M-473.3,291h2v2h-2V291 M-479.3,293v-2h2v2H-479.3 M-239.3,295h2v2h-2V295 M-233.3,297v-2h2v2H-233.3
	 M-231.3,293h-2v-2h2V293 M-237.3,291v2h-2v-2H-237.3"/>
<path class="st64" d="M-269.3,287h2v2h-2V287 M-267.3,299v2h-2v-2H-267.3 M-281.3,301h-2v-2h2V301 M-283.3,289v-2h2v2H-283.3"/>
<g>
	<path class="st49" d="M-491.3,392v-2h2v-2h2v2h-2v2H-491.3 M-463.3,388h2v2h2v2h-2v-2h-2V388 M-459.3,410v2h-2v2h-2v-2h2v-2H-459.3
		 M-469.3,414v2h-2v2h-2v2h-4v-2h-2v-2h-2v-2H-469.3 M-487.3,414h-2v-2h-2v-2h2v2h2V414 M-477.3,418h4v-2h-4V418"/>
	<path class="st1" d="M-477.3,418v-2h4v2H-477.3 M-487.3,388h24v2h2v2h2v18h-2v2h-2v2h-6h-12h-6v-2h-2v-2h-2v-18h2v-2h2V388"/>
</g>
<path class="st65" d="M-449.3,392v-2h2v2H-449.3 M-423.3,390h2v2h-2V390 M-449.3,412v-2h2v2H-449.3 M-423.3,412v-2h2v2H-423.3"/>
<path class="st45" d="M-423.3,412h2v-2v-18v-2h-2h-24h-2v2v18v2h-2v-22h2v-2h28v2h2v22h-2v2h-8v-2H-423.3 M-447.3,412h6v2h2v2h-2v-2
	h-8v-2H-447.3 M-431.3,414h2v2h-2V414 M-439.3,416h2v2h-2V416 M-433.3,416h2v2h-2V416 M-433.3,418v2h-4v-2H-433.3"/>
<path class="st1" d="M-433.3,418h-4v-2h4V418 M-449.3,392h2v-2h24v2h2v18h-2v2h-6v2h-2h-8h-2v-2h-6v-2h-2V392"/>
<path class="st49" d="M-439.3,414h8v2h-2h-4h-2V414"/>
<path class="st49" d="M-397.3,418h-2v-2h-2v-2h-2v-2h2v2h12v-2h2v2h-2v2h-2v2h-2v-2h-4V418h4v2h-4V418 M-401.3,388v2h-2v-2H-401.3
	 M-405.3,390v2h-2v2h-2v-2h2v-2H-405.3 M-409.3,396v2h-2v-2H-409.3 M-411.3,404h2v2h-2V404 M-409.3,408h2v2h2v2h-2v-2h-2V408
	 M-385.3,412v-2h2v-2h2v2h-2v2H-385.3 M-381.3,406v-2h2v2H-381.3 M-379.3,398h-2v-2h2V398 M-381.3,394h-2v-2h-2v-2h2v2h2V394
	 M-387.3,390h-2v-2h2V390"/>
<path class="st1" d="M-403.3,390h2v-2h12v2h2h2v2h2v2h2v2v2h2v6h-2v2v2h-2v2h-2v2h-2h-2v2h-12v-2h-2h-2v-2h-2v-2h-2v-2v-2h-2v-6h2
	v-2v-2h2v-2h2v-2H-403.3 M-397.3,418v-2h4v2H-397.3"/>
<path class="st45" d="M-369.3,396v-4h2v-2h4v-2h16v2h4v2h2v4h2v10h-2v4h-2v2h-4v2h-2v2h-2v2h-2v2h-4v-2h-2v-2h-2v-2h-2v-2h-4v-2h-2
	v-4h-2v-10H-369.3v2v6v2h2v2v2h2h2v2h2v2h2v2h2v2h4v-2h2v-2h2v-2h2v-2h2h2v-2v-2h2v-2v-6v-2h-2v-2v-2h-2h-2v-2h-2h-12h-2v2h-2h-2v2
	v2H-369.3"/>
<path class="st65" d="M-369.3,396h2v2h-2V396 M-367.3,394v-2h2v2H-367.3 M-363.3,392v-2h2v2H-363.3 M-349.3,390h2v2h-2V390
	 M-345.3,392h2v2h-2V392 M-343.3,396h2v2h-2V396 M-341.3,404v2h-2v-2H-341.3 M-343.3,408v2h-2v-2H-343.3 M-365.3,410h-2v-2h2V410
	 M-367.3,406h-2v-2h2V406"/>
<path class="st1" d="M-367.3,406v-2h-2v-6h2v-2v-2h2v-2h2h2v-2h12v2h2h2v2h2v2v2h2v6h-2v2v2h-2v2h-2v2h-2v2h-2h-8h-2v-2h-2v-2h-2v-2
	h-2V406 M-353.3,416v2h-4v-2H-353.3"/>
<path class="st49" d="M-353.3,416h-4h-2v-2h8v2H-353.3"/>
<path class="st49" d="M-327.3,388v2h-2v-2H-327.3 M-329.3,390v2h-2v-2H-329.3 M-331.3,410h2v2h2v2h-2v-2h-2V410 M-303.3,414v-2h2v-2
	h2v2h-2v2H-303.3 M-299.3,392h-2v-2h-2v-2h2v2h2V392"/>
<path class="st1" d="M-299.3,392v18h-2v2h-2v2h-24v-2h-2v-2h-2v-18h2v-2h2v-2h24v2h2v2H-299.3 M-309.3,418h2v2h-2V418 M-315.3,416h4
	v4h-4V416"/>
<path class="st65" d="M-287.3,390v2h-2v-2H-287.3 M-289.3,410h2v2h-2V410 M-263.3,412v-2h2v2H-263.3 M-261.3,392h-2v-2h2V392"/>
<path class="st1" d="M-289.3,392h2v-2h24v2h2v18h-2v2h-24v-2h-2V392 M-269.3,418v-2h2v2H-269.3 M-275.3,418v-4h4v4H-275.3"/>
<path class="st45" d="M-275.3,418h-2v-4h-12v-2h-2v-22h2v2v18v2h2h24h2v-2v-18v-2h2v22h-2v2h-4v4h-2v2h-2v-2h-2v2h-4V418h4v-4h-4
	V418 M-287.3,390h-2v-2h28v2h-2H-287.3 M-269.3,418h2v-2h-2V418"/>
<path class="st49" d="M-247.3,392v2h-2v-2H-247.3v-2h2v2H-247.3 M-249.3,400v4h-2v-4H-249.3 M-249.3,410h2v2h2v2h-2v-2h-2V410
	 M-241.3,414h12v2h-2v2h-2v-2h-4v2h-2v-2h-2V414 M-225.3,414v-2h2v-2h2v2h-2v2H-225.3 M-221.3,404v-4h2v4H-221.3 M-233.3,390h-4v-2
	h4V390 M-233.3,418v2h-4v-2H-233.3"/>
<path class="st1" d="M-233.3,418h-4v-2h4V418 M-249.3,394h2v-2h2v-2h8h4h10v2h2v8v4v6h-2v2h-2v2h-4h-12h-4v-2h-2v-2h-2v-6v-4V394"/>
</svg>
